<svg width="2000" height="2000" xmlns="http://www.w3.org/2000/svg" version="1.1" xml:space="preserve">

 <g>
  <title>Layer 1</title>
  <g id="svg_18">
   <path stroke="null" id="svg_1" d="m1678.00666,1052.15439l-651.92949,0l0,-808.39257c0,-100.65791 -81.88234,-182.54026 -182.54026,-182.54026l-312.92616,0c-100.65791,0 -182.54026,81.88234 -182.54026,182.54026l0,130.3859l-130.3859,0c-14.3946,0 -26.07718,11.68258 -26.07718,26.07718l0,312.92616c0,14.3946 11.68258,26.07718 26.07718,26.07718l130.3859,0l0,260.7718l-130.3859,0c-14.3946,0 -26.07718,11.68258 -26.07718,26.07718l0,312.92616c0,14.3946 11.68258,26.07718 26.07718,26.07718l130.3859,0l0,391.1577c0,100.65791 81.88234,182.54026 182.54026,182.54026l312.92616,0c100.65791,0 182.54026,-81.88234 182.54026,-182.54026l0,-443.31205l651.92949,0c71.88957,0 130.3859,-58.49633 130.3859,-130.3859s-58.49633,-130.3859 -130.3859,-130.3859zm0,208.61744l-990.93283,0c-43.14209,0 -78.23154,-35.08945 -78.23154,-78.23154s35.08945,-78.23154 78.23154,-78.23154l990.93283,0c43.14209,0 78.23154,35.08945 78.23154,78.23154s-35.08945,78.23154 -78.23154,78.23154zm-834.46975,573.69795l-312.92616,0c-43.14209,0 -78.23154,-35.08945 -78.23154,-78.23154l0,-1512.47642c0,-43.14209 35.08945,-78.23154 78.23154,-78.23154l312.92616,0c43.14209,0 78.23154,35.08945 78.23154,78.23154l0,808.39257l-234.69462,0c-71.88957,0 -130.3859,58.49633 -130.3859,130.3859s58.49633,130.3859 130.3859,130.3859l234.69462,0l0,443.31205c0,43.14209 -35.08945,78.23154 -78.23154,78.23154zm-599.77513,-1147.39591l0,-260.7718l104.30872,0l0,260.7718l-104.30872,0zm0,625.85231l0,-260.7718l104.30872,0l0,260.7718l-104.30872,0z"/>
   <path stroke="null" id="svg_2" d="m556.68793,400.22489c0,-14.41546 11.66171,-26.07718 26.07718,-26.07718c14.41546,0 26.07718,11.66171 26.07718,26.07718c0,14.41546 -11.66171,26.07718 -26.07718,26.07718c-14.41546,0 -26.07718,-11.66171 -26.07718,-26.07718z"/>
   <path stroke="null" id="svg_3" d="m660.99665,400.22489c0,-14.41546 11.66171,-26.07718 26.07718,-26.07718c14.41546,0 26.07718,11.66171 26.07718,26.07718c0,14.41546 -11.66171,26.07718 -26.07718,26.07718c-14.41546,0 -26.07718,-11.66171 -26.07718,-26.07718z"/>
   <path stroke="null" id="svg_4" d="m765.30537,400.22489c0,-14.41546 11.66171,-26.07718 26.07718,-26.07718c14.41546,0 26.07718,11.66171 26.07718,26.07718c0,14.41546 -11.66171,26.07718 -26.07718,26.07718c-14.41546,0 -26.07718,-11.66171 -26.07718,-26.07718z"/>
   <path stroke="null" id="svg_5" d="m765.30537,504.53361c0,-14.41546 11.66171,-26.07718 26.07718,-26.07718c14.41546,0 26.07718,11.66171 26.07718,26.07718c0,14.41546 -11.66171,26.07718 -26.07718,26.07718c-14.41546,0 -26.07718,-11.66171 -26.07718,-26.07718z"/>
   <path stroke="null" id="svg_6" d="m660.99665,504.53361c0,-14.41546 11.66171,-26.07718 26.07718,-26.07718c14.41546,0 26.07718,11.66171 26.07718,26.07718c0,14.41546 -11.66171,26.07718 -26.07718,26.07718c-14.41546,0 -26.07718,-11.66171 -26.07718,-26.07718z"/>
   <path stroke="null" id="svg_7" d="m556.68793,504.53361c0,-14.41546 11.66171,-26.07718 26.07718,-26.07718c14.41546,0 26.07718,11.66171 26.07718,26.07718c0,14.41546 -11.66171,26.07718 -26.07718,26.07718c-14.41546,0 -26.07718,-11.66171 -26.07718,-26.07718z"/>
   <path stroke="null" id="svg_8" d="m556.68793,608.84233c0,-14.41546 11.66171,-26.07718 26.07718,-26.07718c14.41546,0 26.07718,11.66171 26.07718,26.07718c0,14.41546 -11.66171,26.07718 -26.07718,26.07718c-14.41546,0 -26.07718,-11.66171 -26.07718,-26.07718z"/>
   <path stroke="null" id="svg_9" d="m660.99665,608.84233c0,-14.41546 11.66171,-26.07718 26.07718,-26.07718c14.41546,0 26.07718,11.66171 26.07718,26.07718c0,14.41546 -11.66171,26.07718 -26.07718,26.07718c-14.41546,0 -26.07718,-11.66171 -26.07718,-26.07718z"/>
   <path stroke="null" id="svg_10" d="m765.30537,608.84233c0,-14.41546 11.66171,-26.07718 26.07718,-26.07718c14.41546,0 26.07718,11.66171 26.07718,26.07718c0,14.41546 -11.66171,26.07718 -26.07718,26.07718c-14.41546,0 -26.07718,-11.66171 -26.07718,-26.07718z"/>
   <path stroke="null" id="svg_11" d="m660.99665,713.15105c0,-14.41546 11.66171,-26.07718 26.07718,-26.07718c14.41546,0 26.07718,11.66171 26.07718,26.07718c0,14.41546 -11.66171,26.07718 -26.07718,26.07718c-14.41546,0 -26.07718,-11.66171 -26.07718,-26.07718z"/>
   <g stroke="null">
    <path stroke="null" d="m607.14634,1462.39669l-53.77184,0l0,287.23562l53.77184,0l0,-287.23562zm107.54977,0l-53.77184,0l0,128.77486l53.77184,0l0,-128.77486zm-53.77184,185.37103l26.88592,-26.91027l26.88592,26.91027l0,101.87068l-53.77793,0l0,-101.87068l0.00609,0zm161.32162,-185.37103l-53.77184,0l0,287.23562l53.77184,0l0,-287.23562z" fill="#000"/>
   </g>
   <path stroke="null" id="svg_16" d="m660.99665,713.15105c0,-14.41547 11.66172,-26.07718 26.07718,-26.07718c14.41547,0 26.07718,11.66171 26.07718,26.07718c0,14.41546 -11.66171,26.07718 -26.07718,26.07718c-14.41546,0 -26.07718,-11.66172 -26.07718,-26.07718z"/>
  </g>
 </g>
</svg>