<?xml version="1.0" standalone="no"?>
<!DOCTYPE svg PUBLIC "-//W3C//DTD SVG 20010904//EN"
 "http://www.w3.org/TR/2001/REC-SVG-20010904/DTD/svg10.dtd">
<svg version="1.0" xmlns="http://www.w3.org/2000/svg"
 width="300.000000pt" height="300.000000pt" viewBox="0 0 300.000000 300.000000"
 preserveAspectRatio="xMidYMid meet">
<metadata>
Created by potrace 1.10, written by Peter Selinger 2001-2011
</metadata>
<g transform="translate(0.000000,300.000000) scale(0.100000,-0.100000)"
fill="#000000" stroke="none">
<path d="M723 2646 l-28 -24 0 -1116 0 -1116 25 -24 25 -25 245 -3 c266 -3
278 -1 305 52 13 24 15 88 15 390 0 233 -4 360 -10 360 -6 0 -10 -130 -10
-369 0 -204 -3 -372 -7 -374 -5 -3 -7 161 -5 365 3 350 2 369 -15 366 -17 -3
-18 -21 -18 -253 0 -138 2 -306 5 -373 3 -69 1 -126 -4 -130 -5 -3 -6 0 -2 6
4 7 3 12 -3 12 -5 0 -13 -4 -16 -10 -8 -14 -450 -13 -476 0 -20 11 -20 11 -21
2049 0 166 2 186 18 198 13 10 73 13 245 13 199 0 230 -2 244 -17 16 -15 17
-67 14 -632 -2 -339 -5 -628 -7 -643 -6 -40 -31 -35 -82 17 -24 25 -49 45 -54
45 -5 0 13 -22 40 -49 35 -36 61 -53 91 -59 l43 -10 3 652 2 651 3 -652 c1
-427 5 -653 12 -653 7 0 10 221 10 643 l0 643 -25 35 c-45 60 -39 59 -296 59
-237 0 -238 0 -266 -24z m544 -428 c-1 -73 -3 -14 -3 132 0 146 2 205 3 133 2
-73 2 -193 0 -265z m0 -1695 c-3 -10 -5 -4 -5 12 0 17 2 24 5 18 2 -7 2 -21 0
-30z m-109 -170 c-10 -2 -28 -2 -40 0 -13 2 -5 4 17 4 22 1 32 -1 23 -4z"/>
<path d="M958 2583 c6 -2 18 -2 25 0 6 3 1 5 -13 5 -14 0 -19 -2 -12 -5z"/>
<path d="M1050 2566 c0 -2 8 -10 18 -17 15 -13 16 -12 3 4 -13 16 -21 21 -21
13z"/>
<path d="M915 2538 c-4 -10 -11 -16 -15 -13 -5 3 -12 0 -16 -6 -4 -8 -3 -9 4
-5 8 5 12 -3 12 -23 0 -16 3 -37 7 -47 5 -13 3 -15 -8 -10 -8 4 1 -6 19 -23
18 -17 38 -31 45 -31 6 1 0 8 -15 16 -16 8 -28 17 -28 20 0 2 9 0 19 -6 43
-23 101 -7 122 33 10 19 8 18 -16 -5 -30 -30 -51 -34 -89 -17 -31 15 -50 63
-35 91 6 10 8 24 6 31 -3 8 -7 6 -12 -5z"/>
<path d="M882 2480 c0 -14 2 -19 5 -12 2 6 2 18 0 25 -3 6 -5 1 -5 -13z"/>
<path d="M1087 2470 c-4 -17 -18 -42 -31 -55 -14 -14 -21 -25 -16 -25 22 0 72
91 58 106 -3 2 -8 -9 -11 -26z"/>
<path d="M998 2383 c7 -3 16 -2 19 1 4 3 -2 6 -13 5 -11 0 -14 -3 -6 -6z"/>
<path d="M812 2248 c-25 -31 -16 -88 14 -88 37 0 51 53 23 87 -14 16 -24 17
-37 1z m30 -38 c3 -23 1 -30 -11 -30 -11 0 -16 9 -16 30 0 17 5 30 11 30 7 0
14 -13 16 -30z"/>
<path d="M964 2249 c-4 -7 -8 -27 -10 -45 -3 -29 1 -35 21 -40 34 -9 45 2 45
46 0 25 -5 40 -16 44 -23 9 -32 7 -40 -5z m34 -12 c7 -8 7 -18 2 -27 -6 -9 -5
-17 3 -22 8 -5 4 -8 -10 -8 -26 0 -29 10 -10 29 10 11 10 14 0 18 -15 5 -18
23 -4 23 5 0 13 -6 19 -13z"/>
<path d="M1124 2249 c-13 -22 -8 -72 8 -83 26 -16 50 11 46 53 -2 28 -8 37
-25 39 -11 2 -25 -3 -29 -9z m37 -6 c7 -42 2 -58 -16 -61 -12 -2 -16 0 -9 5
13 9 15 43 2 43 -4 0 -8 5 -8 10 0 11 29 14 31 3z"/>
<path d="M967 2072 c-10 -11 -15 -29 -12 -47 2 -17 4 -33 4 -37 2 -15 49 -8
55 8 22 56 -14 113 -47 76z m38 -12 c3 -5 -2 -10 -11 -10 -16 0 -16 -1 1 -14
16 -12 17 -16 6 -30 -7 -9 -18 -13 -23 -10 -6 4 -5 10 3 15 12 8 12 10 0 18
-8 5 -11 16 -8 25 7 18 23 21 32 6z"/>
<path d="M806 2058 c-22 -31 -20 -45 9 -64 20 -13 27 -14 37 -2 15 15 15 21 5
61 -9 33 -30 35 -51 5z m41 -55 c-4 -3 -13 2 -23 11 -13 14 -14 19 -3 32 12
14 14 13 22 -11 5 -14 7 -29 4 -32z"/>
<path d="M1128 2069 c-21 -12 -24 -59 -6 -77 43 -43 84 26 45 76 -11 14 -16
15 -39 1z m32 -9 c0 -5 -5 -10 -12 -10 -6 0 -3 -6 7 -14 16 -12 17 -16 6 -30
-7 -9 -17 -13 -22 -10 -10 6 -12 58 -2 67 10 10 23 8 23 -3z"/>
<path d="M1134 1901 c3 -5 -1 -11 -9 -15 -28 -10 -11 -86 20 -86 21 0 45 42
39 67 -3 11 -17 26 -30 32 -14 6 -23 7 -20 2z m34 -47 c3 -22 -24 -52 -35 -40
-4 4 -1 11 7 16 10 7 11 10 3 10 -7 0 -13 9 -13 21 0 27 34 21 38 -7z"/>
<path d="M803 1889 c-12 -12 -7 -67 7 -82 13 -14 47 11 54 39 11 43 -31 73
-61 43z m47 -13 c0 -15 -24 -66 -31 -66 -12 0 -11 7 2 32 9 16 8 23 -2 29 -10
6 -8 9 9 9 12 0 22 -2 22 -4z"/>
<path d="M962 1888 c-19 -19 -14 -63 8 -83 19 -17 21 -17 40 0 23 21 26 60 6
81 -18 17 -38 18 -54 2z m43 -43 c0 -43 -29 -40 -33 3 -3 28 0 33 14 30 12 -2
18 -13 19 -33z"/>
<path d="M961 1706 c-17 -20 -10 -77 11 -90 13 -8 22 -6 37 8 26 24 27 58 3
79 -23 21 -36 21 -51 3z m44 -41 c0 -43 -29 -40 -33 3 -3 28 0 33 15 30 13 -2
18 -12 18 -33z"/>
<path d="M981 1664 c0 -11 3 -14 6 -6 3 7 2 16 -1 19 -3 4 -6 -2 -5 -13z"/>
<path d="M802 1698 c-20 -20 -15 -66 9 -78 16 -9 25 -8 40 6 33 29 19 84 -21
84 -9 0 -21 -5 -28 -12z m38 -9 c0 -5 5 -7 10 -4 6 3 10 1 10 -4 0 -6 -6 -11
-12 -12 -10 0 -10 -2 0 -6 6 -2 12 -9 12 -14 0 -6 -4 -8 -9 -5 -5 4 -12 0 -15
-6 -5 -11 -7 -11 -12 0 -3 6 -10 10 -15 6 -5 -3 -9 0 -9 5 0 6 6 11 13 12 10
0 10 2 0 6 -7 2 -13 9 -13 14 0 6 5 7 10 4 6 -3 10 -1 10 4 0 6 5 11 10 11 6
0 10 -5 10 -11z"/>
<path d="M1112 1698 c-30 -30 -3 -83 39 -76 29 4 43 29 35 61 -5 21 -12 27
-34 27 -15 0 -33 -5 -40 -12z m58 -20 c0 -6 -7 -8 -15 -4 -8 3 -15 1 -15 -4 0
-6 7 -10 15 -10 8 0 15 -5 15 -11 0 -6 -7 -9 -15 -5 -8 3 -15 1 -15 -5 0 -6
-4 -8 -9 -4 -8 4 -9 52 -2 62 4 6 41 -11 41 -19z"/>
<path d="M970 1442 c-71 -5 -66 -17 8 -17 37 0 78 -4 92 -9 18 -6 22 -5 14 3
-16 17 -63 26 -114 23z"/>
<path d="M855 1401 c-46 -29 -96 -100 -94 -133 0 -7 7 3 16 22 17 41 56 85 98
111 17 11 26 19 20 19 -5 0 -23 -9 -40 -19z"/>
<path d="M1029 1355 c18 -8 38 -15 45 -15 19 1 -38 29 -59 29 -14 0 -10 -4 14
-14z"/>
<path d="M849 1349 c-5 -3 -20 -20 -34 -39 -19 -26 -25 -46 -25 -84 0 -28 5
-58 10 -66 7 -10 8 -1 4 31 -13 97 50 165 134 145 16 -3 22 -1 19 7 -4 12 -90
17 -108 6z"/>
<path d="M1018 1323 c7 -3 16 -2 19 1 4 3 -2 6 -13 5 -11 0 -14 -3 -6 -6z"/>
<path d="M1100 1318 c8 -9 21 -13 27 -11 7 3 13 -2 13 -11 0 -13 -12 -16 -57
-18 -172 -5 184 -19 612 -23 263 -3 482 -9 485 -13 3 -4 11 -7 19 -7 8 0 16
-5 18 -12 3 -8 -14 -15 -49 -19 -44 -6 -49 -9 -28 -15 32 -9 66 -8 -500 -14
-365 -5 -470 -9 -532 -22 -54 -11 -75 -20 -71 -29 3 -9 10 -10 21 -4 48 24
128 28 587 30 270 0 509 5 530 10 22 5 60 10 85 10 40 0 46 3 47 23 3 48 -6
65 -39 73 -18 5 -267 9 -553 10 -286 1 -530 3 -543 5 -17 2 -22 8 -19 21 3 10
0 18 -6 18 -7 0 -23 3 -36 7 -22 6 -23 5 -11 -9z m1166 -88 c8 0 14 -9 14 -20
0 -32 -46 -27 -53 6 -3 19 -1 24 10 20 8 -3 21 -6 29 -6z"/>
<path d="M850 1289 c-8 -11 -14 -25 -12 -30 1 -5 -3 -9 -8 -9 -12 0 -9 -59 3
-67 5 -3 7 5 6 18 -4 35 10 71 35 91 16 13 17 18 6 18 -9 0 -22 -9 -30 -21z"/>
<path d="M752 1220 c0 -19 2 -27 5 -17 2 9 2 25 0 35 -3 9 -5 1 -5 -18z"/>
<path d="M896 1228 c-7 -28 4 -41 24 -27 13 9 12 10 -3 5 -14 -4 -16 -1 -11
19 3 14 4 25 1 25 -2 0 -7 -10 -11 -22z"/>
<path d="M1262 1208 c-24 -9 -35 -9 433 -12 231 -2 380 0 330 4 -49 4 -216 9
-370 10 -154 1 -302 3 -328 4 -26 0 -55 -2 -65 -6z"/>
<path d="M1158 1193 c7 -3 16 -2 19 1 4 3 -2 6 -13 5 -11 0 -14 -3 -6 -6z"/>
<path d="M760 1137 c0 -11 36 -74 54 -95 53 -61 165 -87 252 -58 51 17 124 75
124 98 -1 7 -9 3 -20 -11 -15 -17 -24 -21 -33 -13 -8 7 -17 6 -30 -3 -11 -7
-14 -16 -8 -19 5 -4 12 -2 16 4 3 5 12 10 18 10 23 -1 -43 -49 -81 -59 -56
-16 -102 -13 -152 10 -56 25 -86 53 -111 102 -17 32 -29 46 -29 34z"/>
<path d="M850 1121 c0 -4 8 -15 18 -23 55 -49 141 -63 184 -29 13 11 40 26 59
34 26 12 29 16 13 16 -12 1 -38 -11 -59 -25 -48 -32 -117 -37 -143 -9 -16 17
-16 17 5 12 13 -3 42 1 65 8 35 10 39 14 24 20 -10 5 -21 3 -25 -3 -6 -11 -74
-10 -118 1 -13 3 -23 2 -23 -2z"/>
<path d="M1195 1100 c3 -5 8 -10 11 -10 2 0 4 5 4 10 0 6 -5 10 -11 10 -5 0
-7 -4 -4 -10z"/>
<path d="M845 1060 c10 -11 20 -20 23 -20 3 0 -3 9 -13 20 -10 11 -20 20 -23
20 -3 0 3 -9 13 -20z"/>
<path d="M1041 1019 c-13 -5 -22 -12 -19 -15 3 -3 21 2 39 10 37 16 19 21 -20
5z"/>
<path d="M910 1016 c0 -9 30 -14 35 -6 4 6 -3 10 -14 10 -12 0 -21 -2 -21 -4z"/>
<path d="M968 1003 c7 -3 16 -2 19 1 4 3 -2 6 -13 5 -11 0 -14 -3 -6 -6z"/>
<path d="M932 638 c-16 -16 -16 -113 1 -125 17 -14 107 -15 123 -2 17 14 19
110 2 127 -7 7 -35 12 -63 12 -28 0 -56 -5 -63 -12z m30 -63 c-5 -71 -22 -71
-22 0 0 37 4 55 13 55 8 0 11 -16 9 -55z m40 30 c-2 -14 -8 -25 -13 -25 -5 0
-9 11 -9 25 0 14 6 25 14 25 9 0 12 -8 8 -25z m43 -30 c0 -37 -4 -55 -12 -55
-9 0 -13 18 -13 55 0 37 4 55 13 55 8 0 12 -18 12 -55z m-43 -30 c4 -17 1 -25
-8 -25 -14 0 -19 31 -7 43 9 10 10 9 15 -18z"/>
</g>
</svg>
