<?xml version="1.0" standalone="no"?>
<!DOCTYPE svg PUBLIC "-//W3C//DTD SVG 20010904//EN"
 "http://www.w3.org/TR/2001/REC-SVG-20010904/DTD/svg10.dtd">
<svg version="1.0" xmlns="http://www.w3.org/2000/svg"
 width="1522.506333pt" height="1962.127163pt" viewBox="0 0 1522.506333 1962.127163"
 preserveAspectRatio="xMidYMid meet">
<metadata>
Created by potrace 1.12, written by Peter Selinger 2001-2015
</metadata>
<g transform="translate(-19.362307,1978.835069) scale(0.100000,-0.100000)"
fill="#000000" stroke="none">
<path d="M3300 19783 c-124 -2 -751 -7 -1395 -12 -1146 -8 -1171 -9 -1238 -29
-106 -33 -194 -87 -278 -172 -93 -93 -151 -202 -173 -325 -22 -119 -32 -18492
-10 -18584 53 -230 230 -412 464 -478 75 -21 46 -21 2400 -2 1091 8 1421 14
1475 24 174 33 350 160 437 315 33 58 75 174 82 225 3 22 13 141 22 265 l15
225 33 51 c51 76 73 124 103 221 l28 88 3 2067 c1 1138 6 2068 11 2068 4 0 77
7 162 14 388 37 768 42 5304 76 3691 28 3721 29 4020 71 362 52 542 139 608
294 28 67 47 219 46 370 l-2 140 -9 -89 c-12 -116 -39 -176 -94 -206 -45 -25
-88 -23 -152 7 -54 26 -224 248 -218 287 0 4 -24 27 -54 50 -30 23 -55 48 -55
56 0 20 59 49 140 70 108 28 245 67 295 85 36 13 49 13 67 4 33 -17 36 -8 13
38 -39 82 -185 182 -340 232 -274 90 -783 196 -1135 235 -401 45 -594 45
-4850 6 -3187 -29 -3221 -29 -3637 11 l-118 12 -3 5531 -2 5531 -21 75 c-28
99 -55 159 -109 240 l-45 67 -15 164 c-22 248 -44 313 -149 443 -92 114 -216
195 -352 230 -53 14 -133 16 -555 14 -272 -2 -595 -4 -719 -5z m-508 -707
c148 -29 268 -87 386 -185 155 -129 278 -369 289 -564 22 -393 -193 -735 -551
-877 -101 -40 -176 -53 -297 -52 -241 2 -433 83 -590 248 -108 114 -167 217
-206 362 -37 132 -39 326 -5 445 96 336 356 573 692 630 59 10 214 6 282 -7z
m1309 -2920 c35 -31 49 -58 49 -97 0 -35 -32 -94 -55 -103 -12 -4 -6 -15 25
-46 35 -35 40 -46 40 -86 0 -54 -20 -101 -59 -138 -23 -22 -40 -28 -97 -32
-58 -5 -74 -2 -101 15 -32 20 -39 35 -27 64 4 13 14 12 66 -6 59 -20 60 -20
95 -2 54 29 69 90 36 145 -13 23 -25 30 -57 32 -36 3 -41 6 -44 29 -3 22 2 27
28 32 73 15 105 96 54 136 -33 26 -57 26 -113 0 -35 -15 -46 -17 -53 -7 -30
48 27 87 127 87 49 0 65 -4 86 -23z m-1367 -63 c22 -46 20 -115 -5 -168 -12
-25 -52 -81 -90 -125 -38 -44 -69 -84 -69 -90 0 -6 39 -10 100 -10 l100 0 0
-25 c0 -14 -6 -28 -14 -31 -8 -3 -71 -6 -140 -7 -134 -2 -136 -2 -136 50 0 16
20 47 60 91 100 110 133 164 138 226 4 50 3 54 -28 76 -31 22 -32 22 -85 5
-60 -18 -75 -15 -75 19 0 27 35 47 100 56 61 8 122 -20 144 -67z m-1468 35 c4
-7 7 -100 5 -208 -1 -107 1 -203 4 -212 5 -12 18 -18 41 -18 29 0 34 -3 34
-25 0 -30 -32 -38 -139 -33 -56 2 -76 7 -85 20 -13 22 -5 30 41 37 l38 6 0
160 0 160 -37 3 c-33 3 -38 7 -38 28 0 19 6 26 30 31 17 3 39 18 51 34 21 31
43 37 55 17z m2839 -1468 c20 -7 26 -16 23 -33 -2 -18 -10 -22 -45 -24 -23 -1
-55 -9 -71 -17 -36 -19 -72 -73 -72 -110 0 -23 2 -25 19 -16 11 5 44 10 73 10
88 -1 128 -48 129 -153 1 -76 -9 -102 -55 -146 -30 -29 -43 -35 -85 -35 -62
-1 -97 23 -131 89 -63 126 -22 348 77 412 14 9 44 20 67 24 22 3 42 7 43 8 1
0 14 -4 28 -9z m-1347 -47 l3 -33 -90 0 c-87 0 -91 -1 -97 -24 -3 -13 -4 -38
-2 -57 3 -32 5 -34 48 -40 98 -12 144 -62 144 -159 0 -65 -30 -127 -74 -153
-34 -20 -169 -24 -188 -5 -14 14 -16 78 -3 78 5 0 25 -7 44 -15 53 -22 94 -19
122 9 32 32 41 83 22 129 l-16 36 -78 3 -78 3 -3 119 c-1 66 0 126 2 133 4 11
32 13 123 11 l118 -3 3 -32z m-1410 -120 c2 -127 3 -132 25 -135 15 -2 23 -11
25 -29 2 -21 -2 -28 -22 -33 -25 -6 -26 -9 -26 -80 0 -90 -5 -106 -35 -106
-28 0 -35 22 -35 113 l0 67 -99 0 c-107 0 -113 3 -103 56 4 23 85 135 197 271
5 7 24 12 40 10 l30 -2 3 -132z m2743 -1369 c55 -38 74 -95 73 -219 0 -82 -5
-111 -25 -160 -33 -80 -90 -125 -159 -125 -64 0 -80 7 -80 36 0 22 4 24 48 24
59 0 108 29 128 75 20 49 19 79 -3 70 -10 -4 -40 -10 -68 -12 -61 -6 -97 18
-126 81 -70 155 82 321 212 230z m-1384 -11 c23 -15 44 -36 47 -47 10 -38 6
-101 -9 -126 -27 -47 -28 -53 -16 -69 59 -82 67 -134 29 -191 -40 -58 -72 -75
-138 -73 -96 2 -140 48 -140 147 0 48 5 65 25 92 28 36 32 59 12 71 -22 13
-40 71 -33 104 3 17 15 43 27 57 53 68 126 81 196 35z m-1324 -53 c-1 -34 -26
-96 -98 -250 -53 -113 -102 -208 -108 -212 -7 -4 -20 -8 -29 -8 -32 0 -20 44
55 202 88 183 107 226 107 238 0 6 -38 10 -87 10 -111 0 -133 6 -133 34 0 13
3 26 7 30 4 3 70 5 147 4 l141 -3 -2 -45z m1315 -1460 c74 -45 107 -255 62
-394 -27 -83 -55 -108 -122 -113 -71 -5 -97 11 -130 77 -25 51 -27 64 -28 182
0 102 4 135 19 171 38 88 125 122 199 77z m1452 -41 c0 -38 1 -39 34 -39 69 0
73 -60 5 -70 l-34 -5 -3 -82 -3 -83 34 0 c68 0 76 -56 10 -62 -37 -3 -38 -4
-43 -48 -4 -32 -10 -46 -22 -48 -17 -3 -24 12 -30 68 -3 24 -5 25 -83 25 l-80
0 -6 -42 c-6 -49 -12 -58 -34 -50 -10 4 -15 20 -15 46 0 35 -4 42 -24 47 -14
3 -29 3 -35 0 -12 -8 -30 24 -24 42 3 6 22 15 44 18 l40 7 -3 81 -3 81 -35 5
c-29 4 -36 10 -38 33 -2 15 0 27 5 28 46 5 56 8 64 20 5 8 9 29 9 47 0 29 3
33 23 30 18 -2 23 -11 27 -43 l5 -40 83 -3 82 -3 0 31 c0 17 5 40 11 51 16 30
39 5 39 -42z m-2879 24 c0 -10 0 -53 -1 -96 -1 -63 1 -77 12 -71 7 4 44 29 81
56 65 47 70 48 83 31 19 -25 17 -62 -3 -70 -18 -6 -94 -56 -125 -81 -16 -13
-10 -19 62 -66 81 -52 96 -76 68 -104 -19 -19 -30 -15 -97 34 -35 25 -67 42
-72 37 -4 -4 -9 -46 -11 -93 -3 -81 -4 -85 -27 -88 -34 -5 -41 12 -41 106 0
45 -3 82 -7 82 -5 0 -35 -21 -67 -45 -62 -47 -99 -57 -110 -29 -13 33 -4 45
74 95 44 29 77 56 74 60 -3 5 -36 29 -73 53 -38 24 -72 49 -76 56 -9 15 14 60
32 60 7 0 43 -22 80 -50 l68 -49 3 82 c3 103 5 107 42 107 22 0 30 -5 31 -17z
m100 -3724 c22 -32 -28 -170 -87 -239 -16 -19 -47 -62 -68 -95 -22 -33 -52
-73 -67 -90 -16 -16 -35 -46 -43 -65 -8 -19 -28 -50 -45 -69 -16 -18 -33 -46
-36 -62 -4 -16 -11 -31 -16 -34 -5 -4 -9 -17 -9 -30 0 -13 -4 -27 -10 -30 -5
-3 -10 -17 -10 -31 0 -16 4 -23 11 -18 6 3 24 -3 40 -15 15 -11 38 -21 50 -21
13 0 38 -17 62 -42 89 -96 108 -154 83 -243 -13 -42 -26 -61 -65 -94 -69 -58
-112 -57 -175 2 -62 59 -85 114 -87 207 -1 41 -4 64 -6 51 -4 -18 -7 -21 -13
-11 -7 11 -12 7 -22 -16 -7 -16 -28 -46 -47 -66 -71 -78 -102 -197 -102 -388
-1 -134 7 -181 66 -395 55 -200 79 -334 66 -368 -9 -24 -13 -26 -30 -15 -29
18 -124 182 -170 293 -152 364 -141 828 29 1202 93 204 284 454 436 570 145
112 177 130 216 128 22 -1 44 -9 49 -16z m1451 -244 c131 -21 378 -82 511
-126 64 -22 126 -39 136 -39 11 0 39 -9 64 -19 24 -11 111 -36 193 -56 161
-40 506 -140 532 -155 10 -5 36 -14 59 -20 23 -6 49 -17 58 -26 8 -8 15 -13
15 -9 0 3 12 0 28 -8 15 -8 62 -19 104 -25 42 -5 96 -19 119 -31 23 -12 67
-27 98 -33 56 -10 313 -84 341 -98 8 -5 35 -14 60 -20 85 -23 145 -41 165 -50
11 -5 35 -12 53 -15 17 -4 32 -10 32 -15 0 -5 26 -14 58 -21 66 -14 1995 -5
2402 11 129 5 1106 9 2170 10 2361 1 2501 0 2430 -10 -117 -17 -2435 -54
-4490 -71 -1256 -10 -2962 -8 -3065 5 -22 3 -182 10 -355 16 -313 11 -370 15
-380 31 -3 4 -23 9 -45 12 -49 5 -130 28 -255 72 -52 19 -180 60 -284 91 -104
31 -201 63 -215 70 -14 7 -53 22 -86 33 -163 54 -310 107 -313 114 -2 4 -12 7
-21 7 -10 0 -31 6 -47 14 -64 31 -102 45 -159 62 -33 10 -65 24 -71 31 -7 8
-29 19 -49 24 -21 6 -47 19 -58 30 -12 10 -27 19 -34 19 -7 0 -13 3 -13 8 0 4
-32 18 -70 31 -39 14 -73 28 -76 33 -3 5 -3 36 1 68 6 50 10 60 28 63 55 11
349 6 429 -8z m-454 -5422 l2 -513 -85 0 -85 0 0 509 c0 581 -12 520 100 518
l65 -2 3 -512z m374 301 c3 -249 8 -237 -95 -232 l-62 3 -3 223 -2 222 79 0
80 0 3 -216z m386 -164 c2 -206 0 -435 -3 -507 l-7 -133 -84 0 -84 0 0 503 c0
277 3 507 7 511 4 4 43 5 88 4 l80 -3 3 -375z m-418 -262 l35 -43 3 -129 c2
-72 1 -150 -3 -173 l-6 -44 -80 3 -80 3 0 168 c0 92 4 173 8 180 21 36 60 76
73 76 8 0 31 -18 50 -41z"/>
<path d="M2515 18808 c-27 -5 -88 -27 -134 -50 -66 -31 -101 -57 -160 -117
-127 -127 -184 -263 -184 -436 0 -171 59 -312 178 -431 190 -189 466 -228 710
-101 82 43 201 165 248 255 51 97 70 178 70 297 0 85 -5 113 -30 185 -16 47
-46 111 -67 142 -78 118 -216 216 -356 253 -61 16 -198 18 -275 3z"/>
<path d="M3956 14394 c-27 -15 -28 -18 -23 -70 3 -30 14 -69 24 -87 16 -26 26
-33 60 -35 33 -3 43 1 56 21 52 80 19 188 -57 187 -17 -1 -44 -8 -60 -16z"/>
<path d="M1207 14444 c-70 -92 -65 -104 36 -88 l37 7 0 78 c0 44 -3 79 -7 79
-5 0 -34 -34 -66 -76z"/>
<path d="M3974 13072 c-50 -40 -60 -122 -21 -168 19 -22 32 -27 62 -26 79 3
91 19 80 103 -12 88 -71 132 -121 91z"/>
<path d="M2578 13063 c-23 -28 -28 -50 -17 -81 10 -30 55 -62 87 -62 49 0 69
86 31 134 -25 31 -77 36 -101 9z"/>
<path d="M2566 12838 c-24 -39 -28 -69 -16 -112 15 -55 54 -75 108 -54 67 25
65 112 -4 160 -48 33 -69 35 -88 6z"/>
<path d="M2571 11516 c-32 -51 -41 -224 -15 -296 20 -57 46 -75 91 -64 41 11
53 56 53 201 0 110 -3 133 -20 161 -16 26 -26 32 -54 32 -28 0 -38 -6 -55 -34z"/>
<path d="M3937 11443 c-4 -3 -7 -42 -7 -85 l0 -78 85 0 85 0 0 85 0 85 -78 0
c-43 0 -82 -3 -85 -7z"/>
</g>
</svg>
