<?xml version="1.0" standalone="no"?>
<!DOCTYPE svg PUBLIC "-//W3C//DTD SVG 20010904//EN"
 "http://www.w3.org/TR/2001/REC-SVG-20010904/DTD/svg10.dtd">
<svg version="1.0" xmlns="http://www.w3.org/2000/svg"
 width="900.000000pt" height="1152.000000pt" viewBox="0 0 900.000000 1152.000000"
 preserveAspectRatio="xMidYMid meet">
<metadata>
Created by potrace 1.10, written by Peter Selinger 2001-2011
</metadata>
<g transform="translate(0.000000,1152.000000) scale(0.100000,-0.100000)"
fill="#000000" stroke="none">
<path d="M2350 11403 c-19 -2 -469 -7 -1000 -11 l-965 -7 -58 -29 c-74 -36
-147 -109 -184 -183 l-28 -58 0 -2885 c0 -1587 -2 -4008 -5 -5380 l-5 -2495
23 -47 c27 -57 112 -151 155 -173 92 -47 113 -50 342 -50 295 0 1161 8 1630
15 l380 6 68 34 c104 52 172 136 203 255 8 28 17 108 21 179 6 117 9 134 32
170 32 50 50 96 61 156 5 25 9 573 9 1218 l1 1172 27 11 c70 27 700 36 3148
49 1063 5 1941 14 2065 20 354 18 511 61 574 157 21 31 26 55 31 133 6 82 5
92 -7 71 -7 -13 -25 -33 -39 -44 -23 -17 -31 -18 -63 -7 -41 13 -101 77 -135
144 -13 25 -35 53 -47 61 -48 31 -28 45 136 90 129 35 141 47 94 96 -31 32
-124 79 -204 101 -30 9 -80 23 -111 32 -31 9 -64 16 -74 16 -10 0 -41 6 -69
14 -28 8 -94 22 -146 30 -52 8 -126 21 -165 27 -110 20 -1266 23 -2690 8
-1574 -17 -2074 -17 -2215 2 l-105 14 -6 1050 c-3 578 -7 2021 -8 3207 -1
2125 -1 2158 -21 2208 -11 27 -31 68 -45 91 -18 28 -29 63 -35 117 -21 187
-34 218 -120 303 -63 63 -96 81 -183 104 -53 14 -177 18 -267 8z m-695 -421
c114 -41 171 -82 238 -171 62 -81 107 -198 107 -276 0 -57 -33 -181 -65 -247
-38 -77 -148 -186 -215 -213 -8 -4 -28 -12 -45 -20 -100 -46 -281 -37 -388 18
-76 39 -176 140 -212 214 -30 63 -55 171 -55 243 0 67 21 138 62 210 4 8 12
25 18 38 23 54 193 192 237 192 10 1 29 7 43 15 38 22 212 20 275 -3z m-106
-1688 c46 -38 43 -88 -9 -159 -22 -29 -44 -56 -50 -60 -20 -12 2 -25 44 -25
49 0 61 -7 45 -27 -8 -8 -35 -13 -79 -13 -96 0 -101 21 -25 105 15 17 36 49
47 73 19 42 19 44 2 63 -14 16 -26 19 -56 14 -30 -5 -38 -4 -38 9 0 19 38 46
66 46 13 0 36 -12 53 -26z m822 4 c23 -29 24 -48 2 -86 -17 -29 -17 -31 0 -50
23 -26 21 -77 -5 -112 -19 -27 -28 -30 -74 -30 -39 0 -53 4 -58 17 -10 24 7
35 37 24 20 -8 31 -6 51 10 14 11 26 30 26 41 0 22 -35 58 -57 58 -22 0 -15
20 12 32 30 13 40 40 25 68 -11 21 -44 27 -55 10 -10 -17 -35 -11 -35 8 0 28
9 32 63 32 38 0 53 -5 68 -22z m-1643 -125 c2 -99 5 -114 22 -123 35 -18 13
-40 -40 -40 -53 0 -73 16 -47 35 13 10 17 29 17 93 0 72 -2 83 -21 92 l-21 12
24 23 c13 13 32 23 43 22 19 -2 20 -10 23 -114z m850 -750 c3 -17 -3 -24 -23
-29 -14 -3 -29 -4 -32 -1 -11 12 -43 -14 -43 -34 0 -13 9 -21 28 -25 15 -3 38
-15 52 -26 21 -17 25 -29 25 -70 0 -42 -4 -53 -29 -74 -23 -20 -37 -24 -75
-22 -38 3 -46 6 -46 23 0 17 6 20 42 17 35 -3 44 0 58 22 29 44 -1 82 -70 88
-30 3 -30 3 -30 68 0 59 2 66 25 77 14 7 45 12 70 11 38 -3 45 -7 48 -25z
m790 9 c2 -7 -8 -15 -26 -18 -38 -8 -74 -40 -70 -62 3 -13 12 -16 39 -14 49 4
81 -31 81 -91 2 -114 -118 -145 -162 -41 -24 55 -25 76 -6 139 21 67 61 107
105 103 19 -2 36 -9 39 -16z m-1600 -81 c2 -52 7 -74 17 -78 19 -7 19 -29 0
-37 -10 -4 -15 -20 -15 -50 0 -46 -16 -69 -31 -45 -5 8 -9 31 -9 52 l0 37 -44
0 c-93 0 -97 18 -23 118 78 106 101 107 105 3z m777 -791 c39 -24 48 -53 34
-104 -9 -32 -8 -45 7 -71 15 -28 16 -37 4 -64 -7 -17 -28 -40 -47 -52 -29 -18
-38 -20 -64 -9 -16 7 -36 22 -44 34 -19 26 -19 76 -1 101 11 16 11 24 -1 53
-19 47 -9 86 30 111 40 26 42 26 82 1z m821 -11 c27 -29 29 -35 28 -114 0 -75
-3 -87 -28 -119 -29 -39 -61 -52 -102 -42 -34 9 -25 30 14 34 19 2 39 13 52
29 24 30 17 47 -16 39 -32 -8 -73 19 -90 61 -12 29 -12 38 1 71 32 75 91 93
141 41z m-1592 1 c14 -5 26 -15 26 -21 0 -21 -119 -267 -134 -276 -12 -8 -25
17 -19 36 3 9 25 58 49 109 24 51 44 97 44 102 0 6 -25 10 -55 10 -42 0 -57 4
-62 16 -3 9 0 20 8 25 19 12 111 11 143 -1z m772 -869 c26 -16 33 -29 44 -80
32 -154 -49 -271 -136 -196 -29 25 -29 27 -29 129 0 110 10 136 60 157 28 11
26 11 61 -10z m-818 -41 c5 -49 15 -55 51 -29 23 17 34 20 42 12 17 -17 4 -41
-31 -61 -39 -22 -38 -37 5 -64 24 -16 34 -29 33 -43 -3 -23 -33 -22 -61 3 -22
20 -35 8 -39 -38 -2 -27 -8 -36 -25 -38 -21 -3 -23 1 -23 42 0 51 -9 56 -47
26 -19 -15 -30 -17 -44 -9 -18 9 -18 11 -3 34 9 14 22 25 29 25 7 0 18 7 26
16 11 13 6 21 -30 52 -40 34 -42 39 -27 51 15 12 21 11 46 -7 41 -31 50 -28
50 16 0 43 7 54 30 50 9 -2 16 -16 18 -38z m1542 14 c8 -21 15 -25 42 -22 23
2 36 10 43 26 10 23 35 31 35 10 0 -6 10 -23 23 -36 l22 -24 -22 -15 c-16 -11
-23 -25 -23 -48 0 -23 7 -37 23 -48 l22 -16 -22 -16 c-13 -9 -23 -22 -23 -30
0 -26 -20 -26 -32 -1 -15 35 -68 36 -91 4 l-15 -23 -37 36 -37 37 27 13 c15 8
27 17 26 22 0 4 -1 18 -1 32 0 18 -7 28 -25 35 -14 5 -25 12 -25 14 0 10 62
76 71 76 5 0 14 -12 19 -26z m-1490 -2149 c0 -32 -37 -102 -94 -180 -60 -80
-115 -177 -122 -214 -6 -29 -4 -32 39 -50 77 -33 118 -118 84 -178 -7 -12 -24
-31 -39 -43 -28 -22 -57 -21 -86 3 -21 17 -52 83 -52 111 0 41 -18 39 -50 -5
-75 -104 -80 -237 -20 -473 43 -171 47 -196 28 -196 -25 1 -81 91 -128 205
-22 52 -50 206 -50 269 0 64 28 217 54 299 16 51 60 143 80 167 6 8 18 28 26
45 24 48 190 210 245 238 65 34 85 34 85 2z m855 -129 c187 -43 255 -60 285
-72 19 -8 103 -32 186 -53 162 -42 212 -57 344 -103 47 -16 96 -32 110 -34 30
-6 129 -36 340 -103 246 -78 378 -85 1215 -63 276 7 810 12 1225 10 683 -2
1351 -11 1305 -16 -165 -21 -3337 -48 -3635 -32 -96 5 -278 14 -405 19 -235 9
-266 14 -405 66 -19 7 -75 25 -125 40 -49 15 -103 33 -120 40 -16 6 -48 18
-70 24 -22 7 -67 23 -100 36 -242 94 -302 118 -315 129 -8 8 -26 16 -40 20
-14 3 -36 14 -49 24 -28 22 -23 54 12 69 24 11 192 10 242 -1z m-79 -2836 c11
0 14 -22 14 -115 0 -93 -3 -115 -14 -115 -8 0 -20 -2 -28 -5 -32 -12 -40 11
-40 120 -1 109 7 132 40 120 8 -3 20 -5 28 -5z m227 1 c9 -1 9 -542 -1 -557
-9 -15 -53 -21 -69 -11 -19 12 -19 563 0 570 10 4 36 3 70 -2z m-423 -272 c0
-167 -4 -278 -10 -290 -13 -24 -75 -27 -84 -3 -3 9 -6 139 -6 290 l0 274 50 0
50 0 0 -271z m194 -98 c14 -15 16 -35 14 -112 l-3 -94 -33 -3 c-40 -4 -47 14
-47 119 1 101 28 136 69 90z"/>
<path d="M1420 10828 c-72 -29 -99 -46 -143 -87 -27 -25 -53 -55 -58 -66 -5
-11 -13 -27 -18 -35 -17 -30 -41 -119 -41 -151 0 -40 31 -144 48 -161 7 -7 12
-17 12 -24 0 -16 93 -99 133 -119 17 -9 63 -23 100 -31 165 -38 302 37 388
210 22 45 19 248 -4 274 -9 10 -17 23 -17 29 0 6 -23 34 -51 63 -72 74 -156
110 -251 109 -40 0 -84 -5 -98 -11z"/>
<path d="M2271 8278 c-14 -38 11 -97 41 -98 31 -1 51 83 26 108 -20 20 -58 14
-67 -10z"/>
<path d="M688 8318 c-24 -27 -26 -34 -13 -41 30 -16 55 2 55 39 0 42 -8 43
-42 2z"/>
<path d="M1482 7521 c-23 -14 -10 -55 21 -65 22 -8 30 -7 37 4 14 22 12 36 -6
54 -17 18 -32 20 -52 7z"/>
<path d="M1466 7384 c-21 -54 13 -97 60 -75 29 13 32 51 6 74 -23 21 -58 22
-66 1z"/>
<path d="M2288 7529 c-13 -7 -18 -23 -18 -54 0 -39 3 -45 24 -51 13 -3 34 -1
46 6 18 9 20 17 15 43 -7 30 -31 67 -44 67 -3 0 -14 -5 -23 -11z"/>
<path d="M1479 6634 c-21 -26 -25 -149 -5 -179 19 -29 38 -32 61 -8 23 22 18
178 -5 193 -22 14 -36 12 -51 -6z"/>
<path d="M2270 6545 l0 -46 43 3 c42 3 42 3 42 43 0 40 0 40 -42 43 l-43 3 0
-46z"/>
</g>
</svg>
