<?xml version="1.0" standalone="no"?>
<!DOCTYPE svg PUBLIC "-//W3C//DTD SVG 20010904//EN"
 "http://www.w3.org/TR/2001/REC-SVG-20010904/DTD/svg10.dtd">
<svg version="1.0" xmlns="http://www.w3.org/2000/svg"
 width="900.000000pt" height="1152.000000pt" viewBox="0 0 900.000000 1152.000000"
 preserveAspectRatio="xMidYMid meet">
<metadata>
Created by potrace 1.10, written by Peter Selinger 2001-2011
</metadata>
<g transform="translate(0.000000,1152.000000) scale(0.100000,-0.100000)"
fill="#000000" stroke="none">
<path d="M2029 11405 c-3 -2 -376 -7 -829 -11 -669 -6 -829 -9 -845 -20 -11
-8 -28 -14 -38 -14 -24 0 -177 -153 -177 -177 0 -10 -6 -28 -14 -39 -12 -17
-15 -792 -17 -5405 l-3 -5384 23 -48 c26 -53 113 -154 145 -168 12 -5 28 -13
36 -18 8 -5 38 -16 65 -25 54 -18 148 -17 1695 4 l575 7 60 33 c33 17 81 54
106 80 82 85 107 165 116 360 5 116 8 128 34 168 16 24 29 47 29 53 0 5 8 22
18 36 16 25 17 103 20 1198 2 643 0 1190 -3 1214 l-7 43 -36 -5 c-19 -4 -41
-12 -49 -19 -10 -11 -13 -240 -17 -1173 -3 -763 -8 -1170 -15 -1190 -5 -16
-15 -49 -21 -72 -6 -23 -27 -63 -47 -89 l-36 -48 -6 -140 c-7 -144 -13 -168
-62 -238 -11 -14 -44 -40 -74 -57 -46 -26 -70 -33 -133 -36 -96 -6 -946 -15
-1602 -16 -556 -2 -531 -5 -615 72 -81 74 -77 51 -76 508 2 1049 12 2463 17
2529 6 73 6 73 26 55 11 -10 28 -34 38 -53 21 -41 98 -116 158 -154 23 -14 44
-26 47 -26 14 0 0 28 -49 94 -29 40 -57 82 -60 94 -4 12 -12 22 -17 22 -5 0
-9 5 -9 11 0 6 -6 25 -14 42 -7 18 -19 46 -26 62 -59 139 -61 438 -4 572 8 17
14 36 14 41 0 14 63 136 72 140 4 2 16 22 27 46 36 73 186 217 311 298 14 9
46 36 71 60 25 24 67 61 92 82 26 21 47 47 47 57 0 31 119 144 196 188 38 21
92 42 118 46 37 6 49 13 56 31 5 12 18 28 30 34 32 17 25 33 -12 26 -18 -4
-49 -8 -68 -10 -20 -1 -49 -9 -65 -18 -17 -8 -51 -25 -76 -37 -93 -45 -207
-142 -282 -241 -142 -188 -207 -250 -261 -250 -28 0 -49 -17 -101 -83 -27 -33
-41 -45 -49 -37 -7 7 -6 20 2 43 7 18 12 54 12 78 0 25 7 54 15 65 8 10 15 33
15 50 0 17 7 37 15 44 8 7 15 23 15 35 0 12 7 28 15 35 8 7 15 21 15 32 0 10
7 21 15 24 8 4 15 17 15 30 0 13 5 24 10 24 6 0 15 11 20 25 5 14 14 25 20 25
5 0 10 6 10 14 0 28 229 246 258 246 5 0 12 7 16 15 3 8 12 15 19 15 8 0 20 7
27 15 7 8 21 15 31 15 11 0 19 4 19 10 0 5 12 13 28 16 15 4 36 13 47 20 11 8
29 14 40 14 11 0 29 7 39 15 11 8 30 15 43 15 13 0 36 6 51 14 27 13 153 28
247 29 84 1 255 -19 268 -32 6 -6 22 -11 35 -11 13 0 36 -6 50 -14 15 -7 59
-28 97 -47 39 -19 92 -48 118 -66 94 -61 279 -231 324 -296 15 -23 31 -44 36
-45 9 -4 47 -86 47 -101 0 -6 7 -11 15 -11 10 0 15 -10 15 -34 0 -21 6 -36 15
-40 10 -3 15 -19 15 -46 0 -29 4 -40 15 -40 8 0 15 6 15 13 0 19 -40 130 -51
141 -5 6 -9 18 -9 27 0 10 -14 38 -30 62 -17 25 -30 51 -30 58 0 13 -89 150
-105 161 -5 3 -39 29 -75 57 -36 28 -86 65 -112 82 -27 17 -48 34 -48 38 0 5
-22 19 -50 32 -27 13 -50 27 -50 31 0 5 -5 8 -11 8 -10 0 -63 22 -119 50 -9 4
-31 11 -50 15 -19 4 -41 11 -50 16 -56 30 -297 47 -405 29 -65 -11 -86 -15
-190 -41 -22 -6 -44 -14 -49 -20 -6 -5 -18 -9 -27 -9 -21 0 -153 -65 -196 -97
-17 -12 -36 -23 -40 -23 -12 0 -167 -139 -194 -175 -13 -16 -29 -34 -35 -40
-22 -18 -104 -145 -104 -160 0 -8 -3 -15 -8 -15 -7 0 -18 -23 -66 -132 -9 -20
-16 -45 -16 -55 0 -10 -5 -24 -11 -30 -6 -6 -14 -35 -19 -64 -5 -30 -13 -74
-19 -99 -6 -25 -10 -63 -11 -86 0 -31 -8 -52 -35 -87 -20 -26 -44 -66 -55 -89
-11 -24 -24 -50 -29 -58 -6 -8 -12 -27 -16 -42 -3 -16 -10 -28 -15 -28 -10 0
-12 54 -12 290 1 74 1 1622 1 3440 1 3136 2 3307 18 3340 19 35 81 100 97 100
5 0 17 6 25 14 13 11 154 16 716 26 1288 23 1491 24 1517 6 12 -9 29 -16 38
-16 20 0 64 -42 98 -93 l27 -42 5 -2967 c3 -1631 8 -2970 13 -2974 4 -4 8 -5
9 -3 1 2 5 1303 8 2891 4 2195 8 2890 17 2899 9 9 14 1 23 -32 7 -24 21 -71
32 -104 18 -51 22 -96 28 -310 10 -332 17 -6201 8 -6211 -4 -4 -14 -1 -22 5
-8 7 -24 10 -35 6 -26 -8 -61 11 -61 33 -1 15 -2 15 -15 -2 -8 -11 -31 -20
-58 -23 -36 -4 -51 -1 -75 17 -24 17 -38 21 -64 16 -27 -5 -39 -2 -51 12 -11
12 -32 19 -57 20 -22 1 -48 6 -58 11 -9 5 -25 12 -36 15 -15 5 -18 13 -13 47
4 32 0 52 -19 86 -13 26 -24 52 -24 60 0 26 -38 84 -105 158 -56 61 -70 73
-78 60 -6 -11 0 -30 19 -63 15 -26 33 -59 41 -73 7 -15 20 -32 28 -39 8 -7 15
-16 15 -20 0 -5 15 -41 34 -82 48 -104 51 -115 27 -123 -11 -3 -49 3 -84 14
-76 23 -127 67 -120 104 3 13 -4 38 -16 58 -11 19 -31 57 -44 84 -35 74 -91
130 -174 175 -41 22 -79 40 -84 40 -6 0 -17 7 -25 15 -9 8 -26 15 -40 15 -15
0 -24 -6 -24 -15 0 -10 10 -15 34 -15 21 0 36 -6 40 -15 3 -8 14 -15 24 -15
11 0 25 -7 32 -15 7 -8 18 -15 25 -15 23 0 145 -112 145 -133 0 -6 7 -15 16
-22 15 -10 15 -13 0 -27 -18 -19 -21 -59 -5 -75 6 -6 9 -21 7 -34 -2 -19 -10
-25 -34 -27 -27 -3 -210 38 -232 51 -15 10 -210 47 -302 58 -94 11 -331 6
-354 -8 -6 -4 -26 -8 -44 -9 -28 -1 -36 4 -44 25 -8 22 -11 24 -21 11 -7 -9
-23 -20 -37 -26 l-25 -11 43 -22 c28 -14 42 -28 42 -41 0 -23 10 -26 28 -8 19
19 100 39 167 43 66 3 274 -17 345 -34 25 -5 68 -15 95 -21 121 -26 174 -39
225 -58 30 -11 72 -23 94 -27 21 -3 57 -15 80 -25 104 -47 125 -54 185 -65 35
-7 71 -11 80 -8 9 2 36 -3 60 -12 24 -8 61 -15 82 -15 21 0 53 -8 71 -19 58
-33 227 -44 257 -17 11 10 21 12 31 5 12 -7 11 -10 -7 -15 -34 -9 -28 -22 15
-29 20 -3 57 -12 82 -20 25 -8 54 -15 64 -15 11 0 33 -11 50 -23 50 -38 212
-45 806 -34 1395 27 4077 39 4165 19 28 -7 88 -19 135 -28 252 -47 297 -57
357 -82 46 -18 48 -30 17 -79 -8 -12 -14 -25 -14 -28 0 -11 109 -4 210 13 58
10 113 16 122 14 24 -5 30 -30 30 -140 1 -118 -19 -192 -64 -245 -43 -50 -94
-67 -180 -60 -62 5 -70 4 -103 -22 -26 -19 -52 -28 -88 -32 -29 -2 -383 -6
-787 -8 -404 -2 -762 -6 -795 -9 -33 -3 -420 -8 -860 -11 -440 -3 -998 -8
-1240 -11 -242 -3 -606 -7 -810 -9 -421 -4 -836 -21 -910 -36 -27 -6 -144 -14
-260 -19 -479 -20 -858 -48 -883 -66 -22 -16 -7 -32 17 -17 12 8 22 8 28 2 10
-10 26 -10 693 11 304 10 395 10 432 0 29 -7 71 -9 106 -6 125 14 1179 27
3012 36 1929 10 2344 18 2423 49 16 6 41 11 57 11 28 0 63 12 138 48 94 45
131 138 132 332 0 83 -4 123 -15 144 -8 15 -15 38 -15 51 0 28 -54 103 -83
115 -12 6 -29 14 -37 19 -30 18 -86 40 -145 56 -33 9 -80 23 -105 31 -25 8
-58 14 -73 14 -16 0 -38 5 -49 11 -12 6 -48 15 -82 20 -34 4 -86 12 -116 18
-242 45 -191 44 -1696 38 -781 -3 -1789 -11 -2240 -18 -778 -12 -832 -12
-1020 6 l-199 18 -4 3221 c-3 2614 -6 3226 -16 3246 -8 14 -16 32 -20 40 -8
20 -28 55 -42 71 -6 8 -13 48 -17 89 -10 105 -27 192 -43 211 -7 8 -13 21 -13
27 0 21 -115 128 -160 149 -90 41 -110 43 -397 43 -154 0 -282 -2 -284 -5z
m-1842 -692 c-3 -10 -5 -2 -5 17 0 19 2 27 5 18 2 -10 2 -26 0 -35z m0 -245
c-1 -40 -3 -10 -3 67 0 77 1 110 3 73 2 -37 2 -100 0 -140z m5 -2578 c4 -2399
0 -3252 -14 -3200 -4 14 -9 135 -13 270 -7 299 -7 2233 0 2640 4 233 14 1959
15 2644 0 71 2 127 4 125 2 -2 6 -1118 8 -2479z"/>
<path d="M1390 11080 c-108 -25 -202 -80 -287 -167 -132 -134 -192 -303 -165
-461 21 -123 29 -149 63 -218 55 -114 210 -249 313 -275 17 -4 54 -13 81 -21
40 -11 70 -11 150 -2 108 12 137 21 224 67 136 72 218 167 272 313 36 97 39
114 39 208 0 76 -5 118 -20 160 -54 157 -147 267 -290 340 -145 75 -239 89
-380 56z m270 -100 c85 -33 128 -59 183 -111 59 -57 69 -70 104 -144 37 -77
46 -110 51 -180 7 -129 -53 -277 -155 -379 -81 -81 -151 -117 -267 -136 -254
-42 -501 138 -546 397 -16 87 -8 190 19 247 10 22 22 48 25 56 10 22 28 51 54
88 24 33 133 122 150 122 5 0 15 7 22 15 7 8 22 15 34 15 11 1 32 7 46 15 32
19 228 15 280 -5z"/>
<path d="M1409 10831 c-50 -18 -115 -63 -138 -95 -8 -10 -22 -26 -33 -35 -10
-8 -18 -23 -18 -32 0 -9 -7 -19 -15 -23 -9 -3 -15 -18 -15 -34 0 -16 -7 -47
-16 -68 -15 -36 -15 -44 1 -114 9 -41 25 -90 34 -108 20 -42 95 -116 141 -140
51 -27 141 -45 186 -39 99 15 120 20 127 33 4 8 14 14 21 14 18 0 136 129 136
150 0 10 7 23 15 30 12 10 15 37 15 121 0 92 -3 115 -22 151 -12 24 -26 45
-30 46 -4 2 -8 8 -8 14 0 21 -85 95 -130 113 -8 4 -30 13 -48 21 -43 19 -146
16 -203 -5z m233 -129 c71 -33 91 -52 112 -103 30 -72 30 -129 2 -199 -54
-132 -165 -186 -300 -145 -60 18 -101 43 -145 88 -28 30 -35 46 -44 111 -11
73 -10 77 18 136 23 49 40 68 84 97 30 20 68 40 85 44 52 13 122 2 188 -29z"/>
<path d="M1880 10653 c0 -10 5 -25 10 -33 8 -12 10 -9 10 12 0 15 -4 30 -10
33 -5 3 -10 -2 -10 -12z"/>
<path d="M1886 10402 c-4 -13 -5 -26 -2 -29 10 -11 18 4 14 29 l-4 23 -8 -23z"/>
<path d="M1463 9370 c-22 -10 -53 -34 -68 -54 -26 -34 -27 -37 -11 -55 30 -33
31 -82 2 -141 -37 -76 -34 -100 14 -144 35 -31 47 -36 89 -36 63 0 94 12 131
50 35 35 36 42 14 76 -16 23 -16 29 1 83 28 94 7 161 -64 205 -55 34 -65 36
-108 16z m99 -67 c22 -21 28 -36 28 -70 0 -45 -16 -75 -72 -138 l-28 -30 54
-3 c65 -4 84 -20 58 -49 -14 -17 -29 -19 -93 -18 -41 1 -81 5 -88 9 -23 14 -3
66 42 112 48 48 74 109 56 131 -8 8 -25 10 -55 6 -52 -7 -66 12 -40 52 14 21
24 25 63 25 37 0 53 -6 75 -27z"/>
<path d="M2260 9383 c-29 -10 -80 -67 -80 -88 0 -12 7 -37 16 -54 21 -42 15
-139 -9 -153 -38 -21 -13 -75 54 -116 60 -36 112 -27 168 29 49 49 51 54 51
214 0 67 -28 123 -75 150 -39 24 -90 31 -125 18z m118 -76 c28 -26 29 -73 1
-103 l-21 -22 21 -11 c31 -17 29 -96 -4 -133 -21 -25 -31 -28 -88 -28 -70 0
-87 10 -87 52 0 24 4 28 29 28 16 0 34 -7 41 -15 19 -22 45 -18 60 10 19 35 1
72 -37 77 -41 5 -44 36 -4 44 47 10 57 74 12 74 -10 0 -24 -7 -31 -15 -14 -16
-56 -20 -64 -6 -3 5 1 22 9 37 24 47 116 53 163 11z"/>
<path d="M661 9346 c-32 -18 -83 -96 -75 -115 19 -45 24 -122 10 -156 -11 -25
-13 -43 -6 -60 13 -33 34 -33 26 0 -5 19 -2 27 11 31 43 13 45 18 45 94 0 72
-1 75 -26 83 -32 11 -31 40 1 45 11 2 23 11 26 21 4 18 54 37 66 26 3 -4 4
-62 3 -130 -4 -118 -3 -123 18 -130 17 -5 20 -13 18 -38 l-3 -32 -72 0 c-82 0
-98 -16 -39 -40 43 -18 92 -5 130 34 29 30 29 30 21 118 -4 48 -7 98 -6 111 2
35 -22 84 -58 120 -35 35 -53 38 -90 18z"/>
<path d="M1416 8480 c-19 -17 -42 -51 -52 -75 -16 -43 -16 -47 5 -104 25 -68
26 -84 7 -114 -13 -20 -12 -25 23 -64 32 -35 46 -43 88 -49 65 -8 101 10 142
72 36 54 40 103 15 173 -9 27 -13 59 -9 81 5 32 2 40 -31 73 -35 34 -42 37
-95 37 -51 0 -63 -4 -93 -30z m182 -48 c5 -36 -15 -53 -54 -46 -37 7 -66 -9
-58 -31 3 -7 19 -15 35 -19 95 -19 105 -163 13 -201 -69 -29 -141 5 -114 55
12 22 25 26 35 10 9 -14 58 -13 73 2 34 34 -3 85 -55 75 -39 -7 -53 16 -53 93
0 84 8 91 105 87 65 -2 70 -4 73 -25z"/>
<path d="M2249 8490 c-21 -11 -50 -41 -69 -71 -29 -44 -34 -60 -34 -118 -1
-99 16 -144 71 -186 72 -55 140 -47 207 24 41 43 54 141 25 187 -11 19 -19 49
-19 76 0 34 -5 49 -22 64 -58 49 -100 55 -159 24z m147 -45 c9 -23 -15 -45
-50 -45 -36 -1 -66 -20 -66 -44 0 -12 10 -16 42 -16 61 0 78 -20 78 -94 0 -50
-4 -65 -23 -82 -56 -53 -122 -38 -157 35 -25 55 -23 115 7 181 29 63 52 80
111 80 38 0 54 -4 58 -15z"/>
<path d="M2283 8293 c-16 -6 -17 -57 -3 -84 22 -39 70 -13 70 39 0 33 -37 58
-67 45z"/>
<path d="M674 8465 c-23 -13 -54 -41 -70 -62 -32 -42 -66 -137 -57 -162 7 -20
84 -101 96 -101 5 0 26 -13 47 -30 54 -42 81 -39 125 14 30 37 36 54 41 107 9
100 -9 176 -53 221 -44 45 -71 48 -129 13z m100 -31 c3 -9 6 -47 6 -85 0 -53
4 -71 15 -75 19 -8 19 -30 1 -37 -10 -4 -16 -25 -18 -64 -3 -54 -5 -58 -28
-58 -23 0 -25 4 -28 59 l-3 58 -53 -6 c-40 -6 -56 -4 -65 8 -15 18 -7 36 62
126 69 90 98 109 111 74z"/>
<path d="M696 8324 c-30 -31 -32 -40 -11 -48 28 -10 45 5 45 40 0 19 -2 34 -4
34 -2 0 -15 -12 -30 -26z"/>
<path d="M2295 7643 c-11 -2 -30 -6 -42 -8 -12 -3 -40 -28 -62 -56 -35 -44
-41 -58 -41 -100 0 -27 9 -71 20 -99 11 -28 20 -64 20 -81 0 -31 36 -74 76
-89 54 -21 138 27 180 103 24 46 28 62 27 134 -1 92 -9 108 -85 169 -42 33
-52 36 -93 27z m79 -85 c24 -29 26 -39 26 -122 0 -80 -3 -94 -25 -126 -16 -24
-40 -42 -64 -50 -55 -18 -76 -11 -76 25 0 28 3 30 39 33 36 3 65 23 66 45 0 4
-17 7 -37 7 -41 1 -59 11 -86 50 -27 39 -21 78 19 126 30 38 41 44 73 44 31 0
43 -6 65 -32z"/>
<path d="M2286 7517 c-12 -9 -17 -23 -14 -47 3 -32 6 -35 41 -38 35 -3 37 -2
37 25 0 28 -24 73 -39 73 -4 0 -15 -6 -25 -13z"/>
<path d="M671 7626 c-30 -8 -54 -24 -77 -50 l-34 -39 19 -33 c29 -48 35 -93
18 -140 -12 -36 -12 -114 0 -114 11 0 42 46 43 62 0 9 4 19 9 22 11 7 81 149
81 165 0 8 -17 11 -57 9 l-58 -3 0 30 0 30 90 -4 c50 -2 93 -5 98 -8 10 -6 9
-61 -2 -67 -8 -6 -27 -43 -65 -131 -51 -116 -50 -115 -79 -115 -37 0 -31 -24
7 -28 44 -5 122 82 164 184 42 103 42 142 0 184 -51 50 -94 63 -157 46z"/>
<path d="M1460 7634 c-8 -4 -34 -25 -57 -47 -51 -49 -68 -107 -61 -214 3 -58
8 -77 32 -107 54 -71 119 -92 189 -62 66 28 122 121 106 176 -4 14 -7 47 -8
74 -1 59 -30 122 -71 154 -28 22 -102 37 -130 26z m100 -66 c25 -18 30 -29 30
-66 0 -24 -5 -52 -11 -64 -9 -16 -7 -24 10 -42 35 -37 21 -94 -32 -136 -51
-40 -122 -12 -146 59 -9 29 -8 39 9 68 15 26 18 39 10 53 -5 10 -10 36 -10 58
0 32 6 44 32 66 39 32 69 33 108 4z"/>
<path d="M1477 7514 c-14 -14 -7 -44 14 -54 31 -17 51 -5 47 27 -2 21 -9 29
-28 31 -14 2 -29 0 -33 -4z"/>
<path d="M1474 7386 c-3 -8 -4 -27 -2 -43 2 -23 9 -29 32 -31 46 -6 61 33 26
68 -23 23 -48 26 -56 6z"/>
<path d="M1475 6755 c-87 -29 -133 -108 -130 -220 3 -96 12 -120 65 -169 42
-39 55 -46 90 -46 104 0 170 85 170 221 0 76 -24 139 -68 181 -40 39 -80 49
-127 33z m72 -57 c18 -13 36 -34 39 -48 3 -14 10 -35 15 -48 12 -31 12 -119
-1 -127 -5 -3 -10 -16 -10 -29 0 -40 -40 -76 -84 -76 -63 0 -100 64 -98 168 2
87 18 129 60 157 20 14 39 25 41 25 3 0 20 -10 38 -22z"/>
<path d="M1482 6628 c-7 -7 -12 -41 -12 -89 0 -81 11 -104 47 -97 16 3 18 15
18 98 0 88 -2 95 -20 98 -11 1 -26 -3 -33 -10z"/>
<path d="M2173 6695 l-52 -54 3 -88 c3 -98 8 -113 60 -163 35 -33 39 -34 122
-36 l86 -1 49 49 49 49 2 72 c3 116 3 116 -56 175 -52 52 -55 54 -88 44 -21
-7 -49 -8 -78 -2 l-45 8 -52 -53z m224 -15 c4 -20 11 -30 24 -30 20 0 44 -35
34 -50 -3 -6 -14 -10 -24 -10 -23 0 -38 -18 -38 -45 0 -27 15 -45 38 -45 10 0
21 -5 24 -10 9 -15 -14 -40 -36 -40 -13 0 -19 -7 -19 -24 0 -13 -6 -26 -14
-29 -17 -7 -36 11 -36 34 0 11 -10 18 -31 21 -26 4 -32 1 -44 -29 -8 -18 -19
-33 -25 -33 -17 0 -80 73 -80 92 0 10 10 20 25 24 20 5 25 12 25 39 0 27 -5
34 -25 39 -35 9 -32 37 10 80 42 44 53 45 68 6 11 -29 29 -36 61 -24 9 3 16
14 16 23 0 18 18 41 32 41 5 0 11 -13 15 -30z"/>
<path d="M2274 6576 c-3 -8 -4 -27 -2 -43 2 -22 9 -29 31 -31 45 -5 59 18 48
81 -2 13 -71 7 -77 -7z"/>
<path d="M674 6730 c-12 -5 -25 -13 -29 -19 -3 -6 -15 -11 -26 -11 -11 0 -37
-17 -59 -37 -38 -38 -38 -38 -40 -123 -1 -47 -2 -90 -1 -97 2 -27 60 -73 122
-98 l67 -28 65 31 c84 40 122 86 113 137 -4 19 -2 52 5 73 10 36 9 41 -22 85
-18 26 -38 47 -44 47 -5 0 -26 8 -45 18 -47 25 -81 32 -106 22z m61 -87 c0
-22 3 -44 7 -48 4 -4 21 7 39 24 37 38 53 36 57 -6 3 -28 -1 -33 -37 -49 -23
-10 -41 -24 -41 -31 0 -7 17 -21 38 -30 38 -18 54 -55 34 -75 -11 -11 -52 7
-65 28 -4 8 -15 14 -23 14 -12 0 -13 -10 -8 -51 l7 -50 -34 3 c-34 3 -34 3
-32 51 3 54 -11 61 -45 22 -24 -28 -34 -30 -63 -15 -35 19 -18 45 49 75 17 8
32 20 32 27 -1 7 -23 23 -50 36 -56 26 -67 56 -25 66 29 7 60 -6 69 -29 3 -8
13 -15 22 -15 14 0 15 7 10 41 -8 50 -2 61 32 57 24 -3 27 -7 27 -45z"/>
<path d="M1445 4980 c3 -5 29 -10 56 -10 31 0 48 4 44 10 -3 6 -29 10 -56 10
-31 0 -48 -4 -44 -10z"/>
<path d="M2777 4964 c-11 -23 -12 -45 -6 -99 5 -38 9 -121 9 -182 1 -62 5
-115 9 -117 11 -7 23 406 12 417 -6 6 -15 -2 -24 -19z"/>
<path d="M1572 4958 c5 -15 98 -24 98 -10 0 12 -34 22 -73 22 -19 0 -27 -4
-25 -12z"/>
<path d="M2040 4905 c0 -11 53 -55 66 -55 25 0 14 22 -16 33 -16 6 -30 15 -30
19 0 4 -4 8 -10 8 -5 0 -10 -2 -10 -5z"/>
<path d="M1970 4680 c0 -5 7 -10 15 -10 8 0 15 5 15 10 0 6 -7 10 -15 10 -8 0
-15 -4 -15 -10z"/>
<path d="M2586 4528 c-9 -36 -7 -96 4 -103 6 -4 10 18 10 59 0 69 -4 81 -14
44z"/>
<path d="M894 4403 c-31 -59 -59 -79 -66 -46 -3 14 -7 12 -20 -13 -9 -17 -23
-36 -30 -42 -10 -8 -13 -26 -8 -65 5 -45 13 -62 54 -110 49 -56 66 -63 66 -28
0 10 7 24 15 31 11 9 16 30 15 64 0 63 0 88 0 124 0 15 0 44 0 64 0 20 4 39
10 43 12 7 14 35 2 35 -4 0 -22 -26 -38 -57z"/>
<path d="M479 4032 c-50 -72 -64 -126 -64 -257 0 -127 1 -132 62 -264 37 -79
58 -112 110 -169 18 -20 33 -48 35 -66 2 -17 8 -31 13 -31 18 0 16 61 -4 143
-12 44 -21 96 -21 115 0 40 18 61 40 47 27 -17 40 -11 40 18 0 34 -23 71 -34
54 -20 -33 -94 10 -110 65 -4 11 -13 27 -21 33 -8 7 -15 26 -15 42 0 17 -7 55
-16 85 -15 52 -15 57 5 112 21 58 28 111 14 111 -5 0 -20 -17 -34 -38z"/>
<path d="M1496 3973 c-13 -14 -5 -43 17 -57 16 -11 68 -16 182 -21 180 -7 225
-10 379 -24 369 -35 1998 -46 3931 -28 451 4 1122 10 1490 12 369 3 688 8 710
10 27 4 47 1 60 -9 11 -9 28 -16 37 -16 25 0 77 -33 84 -52 8 -26 23 -22 30 7
7 26 32 33 51 14 7 -7 19 -9 27 -6 22 9 21 47 -1 48 -91 5 -118 11 -144 33
-19 16 -48 27 -85 32 -59 7 -1437 -2 -2399 -16 -308 -4 -830 -8 -1160 -9 -330
0 -735 -4 -900 -7 -439 -9 -1555 21 -1785 48 -52 6 -122 12 -155 13 -33 1 -91
7 -130 13 -94 14 -231 23 -239 15z"/>
<path d="M747 3802 c-10 -10 -17 -24 -17 -31 0 -6 -10 -25 -21 -41 -24 -32
-19 -63 8 -58 10 2 20 16 24 34 3 17 16 41 27 52 24 24 29 62 9 62 -8 0 -21
-8 -30 -18z"/>
<path d="M2717 3239 c-10 -6 -51 -15 -90 -20 -93 -11 -192 -27 -242 -40 -22
-6 -51 -12 -65 -15 -14 -3 -35 -7 -47 -10 -13 -2 -23 -9 -23 -16 0 -14 128 -2
147 14 8 6 33 8 60 5 27 -3 70 1 102 10 66 18 188 20 205 3 8 -8 12 -203 14
-713 2 -386 7 -736 11 -777 10 -90 10 -99 13 875 2 363 7 668 12 678 7 15 3
17 -35 17 -24 0 -52 -5 -62 -11z"/>
<path d="M2125 3120 c-8 -13 85 -13 105 0 11 7 -1 10 -42 10 -31 0 -60 -4 -63
-10z"/>
<path d="M1505 1633 c-11 -2 -35 -12 -52 -21 -29 -15 -37 -15 -65 -2 -48 21
-118 19 -149 -4 -64 -49 -64 -48 -69 -328 -6 -283 -4 -293 56 -360 39 -45 88
-54 138 -27 45 24 61 24 100 0 26 -16 40 -18 82 -11 29 5 61 14 73 22 18 11
26 10 55 -6 72 -38 135 -16 193 70 22 31 23 41 22 243 0 116 3 215 6 220 3 5
0 33 -7 62 -9 39 -23 65 -53 96 -38 39 -46 43 -89 43 -26 0 -60 -7 -75 -16
-26 -16 -31 -15 -85 5 -31 11 -58 20 -59 20 -1 -1 -11 -3 -22 -6z m295 -78
c15 -13 16 -23 8 -68 -6 -28 -8 -161 -6 -294 4 -266 7 -253 -57 -253 -63 0
-60 -17 -59 309 1 165 5 304 8 310 11 16 87 13 106 -4z m-428 -5 c2 -5 1 -144
-2 -307 l-5 -298 -59 0 -58 0 1 305 c0 168 0 306 1 308 1 7 119 0 122 -8z
m212 -123 c1 -71 -2 -133 -5 -139 -3 -5 -30 -8 -60 -6 l-54 3 -3 138 -3 138
63 -3 62 -3 0 -128z m-19 -240 c18 -27 21 -48 20 -137 l0 -105 -60 0 -60 0 -3
104 c-3 98 -1 105 23 137 33 43 54 43 80 1z"/>
</g>
</svg>
