<?xml version="1.0" standalone="no"?>
<!DOCTYPE svg PUBLIC "-//W3C//DTD SVG 20010904//EN"
 "http://www.w3.org/TR/2001/REC-SVG-20010904/DTD/svg10.dtd">
<svg version="1.0" xmlns="http://www.w3.org/2000/svg"
 width="1740.000000pt" height="1950.000000pt" viewBox="0 0 1740.000000 1950.000000"
 preserveAspectRatio="xMidYMid meet">
<metadata>
Created by potrace 1.10, written by Peter Selinger 2001-2011
</metadata>
<g transform="translate(0.000000,1950.000000) scale(0.100000,-0.100000)"
fill="#000000" stroke="none">
<path d="M4300 16640 l-655 -5 -52 -29 c-81 -44 -138 -115 -161 -201 -12 -42
-14 -751 -15 -4495 -1 -4022 1 -4449 15 -4484 30 -75 91 -141 162 -176 l66
-33 910 8 c702 5 922 10 960 20 68 18 136 69 182 137 39 56 39 59 49 185 10
134 17 185 28 193 20 14 50 82 60 135 17 85 11 1969 -6 1986 -14 14 -50 5 -82
-21 -18 -16 -21 -24 -13 -32 18 -18 17 -1859 0 -1856 -8 2 -14 -9 -15 -27 -7
-82 -25 -136 -47 -145 -25 -9 -28 -25 -42 -205 -12 -159 -62 -227 -180 -245
-32 -5 -448 -10 -924 -12 l-865 -3 -40 23 c-49 28 -84 76 -97 134 -10 46 -3
2284 8 2371 3 26 9 47 13 47 4 0 18 -12 32 -26 30 -33 143 -114 158 -114 17 0
15 6 -43 93 -56 85 -96 165 -96 191 0 8 -4 17 -8 20 -5 3 -17 48 -27 100 -18
92 -18 99 -1 188 24 131 65 240 112 305 13 17 24 36 24 41 0 21 141 160 211
208 82 57 152 117 213 183 141 151 184 180 293 201 31 5 57 10 57 10 1 0 2 18
3 40 1 39 0 40 -33 40 -19 0 -62 -11 -96 -25 -123 -50 -217 -124 -308 -243
-99 -129 -172 -195 -227 -207 -30 -6 -83 -55 -83 -76 0 -5 -4 -9 -10 -9 -5 0
-12 16 -16 35 -5 26 -2 41 10 54 9 10 16 35 16 58 0 24 6 46 15 53 8 7 15 20
15 30 0 10 7 23 15 30 8 7 15 25 15 40 0 15 7 33 15 40 8 7 15 19 15 26 0 8 4
14 9 14 5 0 20 19 34 43 14 23 54 70 89 103 60 59 189 154 207 154 5 0 14 7
21 15 7 8 22 15 34 15 12 0 27 5 33 11 6 6 26 15 44 19 19 5 61 16 94 25 117
30 212 36 315 19 104 -17 209 -48 255 -76 17 -10 41 -23 55 -29 13 -5 27 -13
30 -17 3 -4 30 -24 60 -45 67 -46 172 -145 226 -212 21 -27 42 -51 47 -53 4
-2 7 -12 7 -23 0 -11 9 -27 20 -36 11 -10 20 -25 20 -35 0 -10 6 -18 14 -18
20 0 11 29 -46 140 -30 57 -66 111 -91 135 -41 38 -60 53 -201 154 -74 53
-161 101 -182 101 -9 0 -28 6 -42 14 -124 64 -416 67 -567 6 -11 -4 -42 -16
-70 -25 -78 -27 -205 -108 -282 -179 -68 -64 -193 -231 -193 -260 0 -8 -6 -21
-14 -28 -7 -8 -24 -50 -36 -93 -13 -44 -27 -85 -31 -91 -5 -6 -13 -39 -18 -75
-12 -80 -31 -135 -68 -189 -15 -24 -34 -54 -41 -67 -8 -14 -16 -22 -18 -20 -6
6 -6 -15 -5 3089 1 2545 2 2690 18 2720 40 73 76 100 148 111 22 4 234 7 470
8 237 1 621 6 855 11 398 9 428 8 479 -9 121 -40 147 -129 152 -516 2 -132 17
-94 21 53 4 159 15 190 43 113 28 -78 32 -315 33 -2568 1 -1160 5 -2278 9
-2482 l6 -373 -31 0 c-42 0 -80 19 -88 43 -6 20 -7 20 -20 2 -12 -17 -19 -18
-72 -8 -32 6 -70 9 -85 6 -15 -3 -33 0 -41 6 -8 6 -33 17 -57 24 -33 10 -44
19 -52 42 -44 138 -122 265 -204 330 -49 40 -133 95 -142 95 -5 0 33 -42 83
-93 78 -79 99 -109 149 -205 31 -61 57 -119 57 -127 0 -21 -79 -20 -125 2 -38
18 -65 64 -65 109 0 13 -4 24 -8 24 -5 0 -18 20 -30 44 -12 24 -29 49 -37 56
-8 7 -15 16 -15 21 0 10 -45 59 -54 59 -3 0 -24 11 -45 25 -35 22 -143 65
-163 65 -4 0 -8 -7 -8 -15 0 -11 11 -15 39 -15 25 0 41 -5 45 -15 3 -8 15 -15
26 -15 11 0 23 -7 26 -15 4 -8 13 -15 21 -15 21 0 93 -59 93 -76 0 -8 4 -14
10 -14 12 0 1 -130 -13 -147 -5 -7 -14 -10 -20 -6 -6 3 -27 10 -46 14 -20 5
-67 16 -106 24 -38 9 -108 23 -155 31 -47 8 -105 19 -130 25 -25 5 -81 6 -125
3 -44 -3 -116 -7 -160 -8 -68 -1 -84 -5 -102 -23 -21 -21 -21 -22 -2 -28 28
-9 24 -53 -8 -87 -15 -15 -32 -28 -39 -28 -7 0 -16 -9 -19 -21 -4 -11 -38 -52
-76 -90 -84 -86 -85 -107 -7 -158 27 -18 52 -40 54 -49 3 -9 10 -28 15 -41
l10 -24 23 22 c12 12 25 19 28 15 14 -14 26 36 25 106 0 64 18 250 28 287 2 6
19 14 37 18 18 4 41 15 52 24 27 24 171 27 298 6 180 -30 414 -93 529 -143 45
-19 84 -29 224 -53 39 -6 81 -17 95 -24 14 -7 54 -18 90 -24 223 -40 293 -55
365 -81 112 -41 263 -44 1355 -25 173 3 556 7 850 10 294 2 776 8 1070 12 294
4 555 7 580 7 135 -2 292 -14 340 -27 30 -8 80 -18 110 -22 82 -11 198 -41
226 -59 28 -19 27 -17 15 -49 -7 -19 -6 -27 3 -30 7 -3 72 2 144 10 72 9 138
13 148 9 15 -6 16 -18 12 -110 -6 -117 -23 -164 -73 -202 -56 -43 -95 -42
-181 1 l-75 38 3 56 c3 49 6 56 24 59 12 2 24 11 27 21 4 15 -5 21 -52 31 -31
7 -73 21 -95 32 -43 22 243 22 -2886 -3 -913 -7 -1391 -7 -1565 0 -137 5 -347
13 -465 16 -209 6 -366 20 -540 50 -88 14 -216 31 -307 39 -44 4 -53 2 -53
-11 0 -29 57 -70 108 -77 179 -22 705 -54 1112 -66 204 -6 3003 -2 3165 5 33
1 353 6 712 10 l652 8 37 -37 c20 -20 46 -36 58 -36 31 0 46 -19 46 -56 0 -17
6 -37 14 -43 8 -7 19 -25 25 -41 8 -24 6 -34 -9 -52 -17 -22 -25 -23 -182 -25
-89 -1 -395 -4 -678 -7 -283 -3 -774 -9 -1090 -12 -316 -3 -642 -7 -725 -9
-82 -2 -420 -6 -750 -9 -767 -8 -971 -14 -1070 -31 -44 -8 -172 -19 -285 -25
-113 -6 -266 -15 -340 -20 -74 -5 -187 -11 -250 -14 -127 -6 -222 -32 -229
-62 -3 -15 2 -16 35 -10 22 4 77 9 124 12 47 2 144 8 215 14 281 21 633 32
702 21 47 -7 150 -8 328 -1 143 5 683 12 1200 15 517 3 1372 7 1900 10 1014 6
1110 10 1279 56 73 20 85 26 131 75 24 25 33 47 43 103 30 178 3 317 -75 377
-17 13 -38 24 -47 24 -8 0 -17 4 -20 9 -7 11 -79 34 -191 60 -49 12 -106 26
-125 31 -88 23 -301 50 -469 59 -101 6 -186 9 -190 7 -8 -5 -2542 -21 -3211
-20 -278 0 -516 3 -530 7 l-25 6 2 2638 c2 2134 0 2650 -11 2703 -8 39 -26 87
-47 119 -31 49 -35 63 -40 153 -6 94 -7 100 -46 155 -30 43 -58 68 -109 98
l-68 40 -291 0 c-159 1 -585 -2 -945 -5z m-810 -2392 c0 -506 -9 -661 -16
-286 -13 661 -11 788 11 788 3 0 5 -226 5 -502z m0 -1824 c0 -648 -4 -1123 -9
-1120 -5 3 -12 164 -16 358 -3 194 -8 425 -10 513 -1 88 1 255 6 370 5 116 10
356 11 535 2 317 6 470 14 470 2 0 4 -507 4 -1126z"/>
<path d="M9429 16584 c-26 -8 -58 -26 -72 -40 -31 -31 -57 -103 -57 -160 0
-25 -6 -47 -16 -55 -8 -7 -23 -26 -32 -43 -16 -29 -17 -148 -22 -1506 l-5
-1475 -1075 -2 c-1255 -2 -1122 -1 -1116 -12 3 -4 50 -11 103 -15 54 -4 121
-13 148 -21 108 -33 495 -48 1226 -49 523 -1 699 2 710 11 32 26 100 43 319
77 52 8 129 26 170 39 41 13 143 46 225 73 134 44 159 49 240 49 84 0 93 -2
135 -30 34 -23 46 -38 48 -60 6 -73 8 -75 66 -75 59 0 70 -8 99 -74 25 -53 31
-114 18 -163 -20 -73 -79 -90 -95 -28 -8 31 -83 115 -102 115 -18 0 -19 4 15
-80 28 -69 29 -74 14 -105 -23 -48 -43 -54 -168 -45 -134 10 -392 22 -735 35
-85 3 -180 10 -210 15 -30 6 -91 14 -135 19 -81 9 -1021 25 -1325 22 -414 -4
-990 4 -1013 14 -28 12 -14 30 24 30 19 0 39 4 46 8 7 4 29 7 50 7 70 0 371
13 673 29 102 6 460 12 795 13 336 2 626 6 645 9 19 4 -55 7 -165 8 -479 4
-849 12 -966 21 -150 11 -413 19 -884 25 -211 2 -372 9 -404 16 -48 10 -56 9
-67 -5 -19 -26 -26 -116 -14 -174 14 -64 34 -79 121 -93 34 -5 67 -13 73 -17
6 -4 574 -9 1261 -12 l1250 -5 2 -632 2 -633 35 -53 c28 -43 36 -64 36 -101 0
-50 10 -74 50 -119 52 -59 34 -58 603 -58 l523 0 44 23 c25 13 49 33 55 44 6
12 15 28 21 35 14 18 10 5104 -3 5122 -6 6 -13 19 -16 28 -3 9 -30 29 -61 43
l-55 26 -493 -1 c-396 -1 -502 -4 -539 -15z m426 -115 c3 -4 -5 -19 -18 -35
-20 -25 -22 -40 -22 -131 l1 -102 32 -29 c30 -27 38 -29 125 -31 92 -1 93 -1
130 32 l37 33 0 101 c0 92 -2 103 -20 113 -27 14 -26 46 3 54 12 3 89 6 170 6
l149 0 29 -29 c37 -37 35 60 25 -1319 l-4 -553 -23 -25 c-24 -26 -24 -26 9
-43 17 -9 20 -16 13 -29 -17 -32 1 -989 19 -1038 6 -14 10 -41 10 -60 0 -47
-24 -40 -28 7 -2 19 -10 38 -18 42 -8 4 -14 19 -14 33 0 47 -93 173 -163 220
-23 16 -48 34 -54 41 -7 6 -34 19 -60 28 -27 9 -56 21 -65 26 -10 5 -77 9
-150 9 -101 -1 -138 -4 -152 -15 -11 -8 -28 -15 -39 -15 -10 0 -39 -13 -64
-30 -24 -16 -46 -30 -49 -30 -3 0 -38 -32 -77 -71 -40 -40 -87 -78 -104 -86
-33 -13 -41 -27 -23 -38 6 -3 10 -19 10 -36 0 -16 5 -29 10 -29 6 0 10 8 10
19 0 27 169 202 221 229 24 12 51 27 59 31 63 36 214 51 295 30 22 -6 54 -13
72 -16 18 -3 38 -11 44 -19 6 -8 16 -14 21 -14 24 0 168 -125 168 -147 0 -6 3
-13 8 -15 9 -4 52 -65 52 -74 0 -4 7 -15 16 -25 9 -10 13 -22 10 -28 -8 -12
-31 -4 -71 24 -16 12 -55 34 -87 48 -31 15 -71 42 -89 62 -46 49 -92 69 -121
54 -12 -6 -74 -14 -137 -17 -102 -4 -116 -3 -127 13 -13 17 -15 17 -61 0 -50
-18 -141 -102 -168 -155 -34 -65 -111 -101 -135 -62 -8 12 -13 13 -16 5 -15
-35 -53 5 -54 55 0 20 7 39 20 49 19 16 19 17 -3 28 -20 10 -22 18 -21 100 0
50 1 661 2 1358 2 1394 7 1513 56 1494 7 -3 19 -1 27 4 16 10 378 9 384 -2z
m221 -50 c3 -6 7 -61 7 -123 l1 -111 -24 0 c-25 0 -25 1 -28 109 -2 71 1 113
9 122 14 17 25 18 35 3z m-154 -61 c1 -35 2 -89 0 -120 -3 -57 -4 -58 -32 -58
l-30 0 0 120 0 120 29 0 c29 0 29 -1 33 -62z m72 56 c25 -10 22 -80 -4 -94
-30 -16 -40 -4 -40 51 0 50 7 57 44 43z m0 -140 c11 -4 16 -19 16 -44 0 -30
-4 -39 -22 -43 -32 -9 -38 -1 -38 49 0 45 8 52 44 38z m-670 -44 c8 -53 8
-2191 0 -2590 -4 -194 -11 -318 -17 -322 -35 -22 -36 -7 -31 530 2 290 6 939
9 1442 3 503 8 930 11 948 8 44 20 40 28 -8z m582 -2703 c17 -2 19 -5 10 -19
-6 -10 -13 -18 -17 -18 -3 0 -27 -14 -53 -31 -33 -22 -54 -30 -73 -26 -14 3
-41 -1 -59 -9 -40 -17 -94 -18 -94 -3 0 16 62 72 107 98 38 21 47 21 179 8z
m-71 -656 c66 -11 154 -24 195 -31 41 -6 116 -17 165 -25 50 -8 127 -16 171
-19 73 -5 84 -3 100 15 11 12 32 30 48 42 l29 21 -6 -48 c-4 -26 -16 -69 -28
-94 -20 -46 -21 -61 -22 -662 -1 -338 -6 -622 -10 -631 -19 -38 -74 -49 -282
-54 -168 -4 -205 -2 -230 11 -27 14 -31 14 -41 -1 -11 -15 -35 -16 -213 -11
-263 7 -290 18 -315 133 -22 96 -26 403 -10 728 8 165 19 335 24 378 9 69 7
81 -10 110 -12 18 -20 50 -20 74 0 33 -5 45 -21 53 -11 7 -24 9 -27 5 -4 -4
-9 -272 -12 -595 -5 -580 -9 -641 -36 -598 -5 7 -10 280 -12 606 l-3 592 23 0
c13 0 32 7 43 16 27 20 334 11 500 -15z m565 -11 c-26 -20 -60 -26 -60 -11 0
5 15 18 32 30 42 26 66 10 28 -19z"/>
<path d="M9906 14432 c-47 -19 -98 -66 -120 -109 -34 -68 -12 -168 49 -226 42
-40 65 -47 144 -43 57 3 76 9 105 31 58 44 78 85 77 159 0 75 -23 121 -79 159
-72 50 -110 56 -176 29z m116 -41 c24 -10 58 -35 76 -56 95 -112 -28 -285
-176 -246 -64 18 -112 84 -112 156 0 66 38 121 102 149 45 19 59 19 110 -3z"/>
<path d="M4440 16365 c-77 -28 -111 -47 -167 -92 -89 -73 -171 -218 -179 -321
-7 -78 22 -217 58 -282 55 -98 159 -191 260 -231 66 -27 227 -29 304 -4 218
71 348 235 361 452 6 99 -7 153 -62 263 -31 61 -113 141 -180 175 -22 11 -41
23 -43 28 -2 4 -18 7 -36 7 -18 0 -37 5 -44 12 -8 8 -50 13 -110 15 -82 2
-107 -2 -162 -22z m277 -71 c21 -9 45 -20 53 -25 8 -5 25 -14 38 -19 39 -17
121 -110 147 -169 14 -31 30 -64 35 -73 16 -29 11 -158 -8 -213 -41 -118 -121
-212 -226 -264 -59 -29 -71 -31 -169 -31 -93 0 -113 3 -161 26 -88 42 -180
138 -221 234 -16 35 -20 67 -20 150 0 101 1 107 33 158 17 29 32 57 32 62 0
15 118 116 157 135 21 9 49 23 63 30 38 20 201 19 247 -1z"/>
<path d="M4530 16170 c-8 -5 -25 -10 -38 -10 -37 0 -143 -115 -167 -180 -46
-131 6 -282 120 -343 73 -39 204 -62 219 -38 3 4 18 11 34 14 28 6 122 81 122
98 0 11 42 72 53 77 4 2 7 46 7 98 0 91 -1 97 -32 141 -42 59 -88 105 -119
119 -73 33 -167 45 -199 24z m161 -118 c36 -14 82 -70 98 -120 27 -80 -19
-185 -99 -227 -48 -25 -210 1 -210 34 0 5 -13 18 -30 27 -34 20 -39 30 -50 99
-10 63 -2 83 59 144 67 68 138 81 232 43z"/>
<path d="M3136 16123 c-2 -10 -8 -43 -11 -74 -8 -67 5 -84 59 -73 42 7 49 23
44 105 l-3 54 -42 3 c-33 2 -42 -1 -47 -15z"/>
<path d="M3204 15888 c-5 -18 -6 -289 -4 -603 6 -682 6 -484 1 -4271 -1 -1673
-7 -3047 -11 -3054 -7 -11 -12 -11 -23 -2 -11 10 -17 9 -27 -4 -10 -11 -14
-61 -14 -190 l-1 -175 50 3 50 3 5 700 5 700 23 10 c24 11 28 25 11 42 -23 23
-29 498 -30 2343 0 1764 4 2207 30 3031 6 222 8 226 63 255 42 22 30 37 -38
49 l-59 10 -3 585 c-1 324 -6 588 -11 593 -5 5 -12 -5 -17 -25z"/>
<path d="M5225 14973 c-23 -5 -85 -69 -85 -88 0 -7 7 -26 15 -41 19 -37 19
-98 0 -114 -28 -23 -18 -62 26 -104 37 -35 45 -38 81 -33 46 6 102 53 124 104
20 45 9 167 -18 208 -35 53 -90 79 -143 68z m85 -65 c33 -24 40 -67 15 -88 -8
-7 -15 -18 -15 -25 0 -7 7 -15 15 -19 10 -3 15 -19 15 -43 0 -64 -55 -101
-130 -88 -37 6 -40 9 -40 41 0 27 4 34 20 34 11 0 29 -5 40 -12 15 -10 23 -9
39 6 24 22 16 37 -27 59 -32 16 -31 29 2 45 31 16 32 48 1 45 -11 -1 -31 -4
-45 -5 -20 -2 -26 2 -28 21 -8 52 83 70 138 29z"/>
<path d="M4534 14950 c-46 -30 -60 -62 -47 -111 9 -36 8 -49 -13 -101 -26 -62
-26 -64 15 -115 24 -31 30 -33 88 -33 70 0 93 6 93 26 0 10 -21 14 -82 16 -81
3 -83 4 -86 29 -2 18 6 36 24 55 49 54 74 91 74 113 0 25 -26 39 -43 22 -6 -6
-19 -11 -29 -11 -14 0 -18 8 -18 34 0 32 3 35 38 41 21 3 49 2 63 -4 27 -10
59 -51 59 -74 0 -23 -30 -75 -61 -107 -17 -16 -27 -31 -22 -31 4 -1 26 -2 48
-3 38 -1 40 -3 45 -36 10 -67 24 -9 27 107 l3 111 -45 46 c-50 52 -81 58 -131
26z"/>
<path d="M3846 14906 c-25 -33 -26 -41 -26 -148 1 -103 3 -116 24 -141 19 -24
30 -28 76 -29 47 -1 56 2 77 28 23 28 23 34 17 129 -4 55 -11 111 -16 124 -16
44 -50 71 -89 71 -30 0 -41 -6 -63 -34z m109 -106 c0 -92 2 -105 18 -108 11
-2 17 -13 17 -33 l0 -29 -70 0 -70 0 0 29 c0 20 6 30 19 34 16 4 18 13 16 67
-2 45 -7 65 -19 72 -9 5 -16 15 -16 23 0 18 60 56 85 53 19 -3 20 -11 20 -108z"/>
<path d="M5660 14861 c0 -12 5 -21 10 -21 6 0 10 6 10 14 0 8 -4 18 -10 21 -5
3 -10 -3 -10 -14z"/>
<path d="M4545 14241 c-63 -28 -97 -113 -74 -189 8 -28 9 -49 1 -69 -11 -33
-5 -48 34 -90 21 -22 32 -26 76 -25 46 1 56 5 92 42 41 40 41 41 39 108 -1 37
-3 88 -3 113 0 38 -6 51 -34 78 -36 35 -93 49 -131 32z m135 -70 c0 -26 -19
-39 -64 -43 -49 -4 -59 -26 -17 -34 37 -8 81 -56 81 -88 0 -29 -60 -92 -94
-98 -14 -3 -37 -3 -51 0 -21 4 -25 10 -25 38 0 34 0 34 45 34 33 0 47 5 52 16
8 21 -22 44 -58 44 -15 0 -29 7 -33 16 -10 27 -6 110 6 122 7 7 42 12 85 12
65 0 73 -2 73 -19z"/>
<path d="M5225 14234 c-79 -42 -115 -102 -115 -192 0 -59 21 -103 66 -140 31
-25 48 -32 83 -32 41 0 49 5 93 50 41 43 48 56 48 91 0 22 -9 58 -21 80 -11
23 -18 47 -15 55 7 17 -3 44 -15 44 -5 0 -9 -9 -9 -19 0 -21 -19 -31 -60 -31
-16 0 -30 -7 -34 -16 -9 -23 -8 -24 22 -24 47 -1 72 -31 72 -89 0 -45 -3 -53
-33 -75 -44 -34 -69 -33 -106 5 -29 28 -31 36 -31 101 0 54 5 79 21 105 24 38
82 67 118 58 23 -6 24 -5 9 17 -19 28 -53 33 -93 12z"/>
<path d="M5660 14220 c0 -19 3 -21 12 -12 9 9 9 15 0 24 -9 9 -12 7 -12 -12z"/>
<path d="M3905 14208 c-60 -33 -125 -121 -125 -171 0 -13 11 -38 25 -57 25
-34 135 -110 160 -110 21 0 73 69 89 120 11 33 13 57 6 90 -5 25 -9 48 -10 52
0 5 -16 26 -36 48 -38 42 -70 50 -109 28z m83 -89 c2 -42 9 -70 20 -82 16 -18
16 -20 -1 -32 -12 -8 -17 -26 -17 -59 0 -46 -1 -47 -27 -44 -26 3 -28 6 -26
46 1 33 -2 42 -15 43 -9 0 -35 1 -57 2 -55 3 -60 33 -12 87 20 21 43 50 53 65
18 27 50 46 69 41 6 -1 11 -31 13 -67z"/>
<path d="M3910 14071 c-6 -12 -6 -22 -1 -25 12 -8 43 23 36 35 -10 15 -24 10
-35 -10z"/>
<path d="M5663 14110 c0 -41 2 -58 4 -37 2 20 2 54 0 75 -2 20 -4 3 -4 -38z"/>
<path d="M5227 14043 c-12 -11 -8 -36 9 -54 20 -22 54 -9 54 19 0 32 -43 56
-63 35z"/>
<path d="M5663 13925 c0 -38 2 -53 4 -32 2 20 2 52 0 70 -2 17 -4 1 -4 -38z"/>
<path d="M5664 13645 c0 -99 2 -138 3 -87 2 51 2 132 0 180 -1 48 -3 6 -3 -93z"/>
<path d="M5215 13511 c-22 -10 -50 -29 -61 -42 -31 -34 -40 -113 -20 -169 9
-25 16 -57 16 -72 0 -34 12 -36 25 -5 8 17 20 23 53 25 28 2 42 8 42 18 0 8
-8 14 -17 14 -10 0 -33 9 -50 20 -31 18 -33 24 -33 72 0 43 5 57 24 76 34 32
85 30 119 -6 24 -25 27 -35 27 -103 0 -74 -1 -76 -40 -117 -33 -36 -45 -42
-80 -42 -40 0 -53 -13 -24 -24 9 -3 35 -6 59 -6 35 0 52 6 80 31 53 46 69 84
69 160 0 75 -19 111 -87 160 -47 34 -50 34 -102 10z"/>
<path d="M3874 13501 c-84 -20 -70 -37 32 -39 48 -1 93 -7 100 -13 16 -13 18
-51 4 -65 -19 -19 -73 -130 -79 -163 -5 -29 -12 -36 -39 -43 -33 -9 -39 -30
-11 -36 34 -6 95 56 137 140 54 108 54 141 -1 201 -21 22 -34 27 -69 26 -24
-1 -57 -4 -74 -8z"/>
<path d="M4498 13472 c-43 -41 -56 -82 -57 -186 -1 -41 4 -55 33 -91 64 -78
166 -84 220 -12 33 44 40 73 37 137 -4 86 -18 125 -56 159 -30 26 -44 31 -86
31 -44 0 -55 -4 -91 -38z m145 -24 c36 -34 41 -60 17 -88 -25 -29 -25 -37 0
-50 32 -17 27 -70 -11 -103 -53 -46 -115 -34 -145 28 -15 32 -15 36 4 62 17
25 17 32 6 58 -35 81 65 152 129 93z"/>
<path d="M4573 13403 c-18 -7 -16 -30 3 -37 27 -11 35 -7 32 16 -3 23 -15 30
-35 21z"/>
<path d="M4554 13285 c-4 -9 0 -23 9 -32 21 -21 49 -9 45 19 -4 28 -45 38 -54
13z"/>
<path d="M3797 13433 c-2 -10 4 -26 12 -37 12 -14 15 -38 14 -104 -1 -47 0
-90 4 -95 6 -10 30 29 54 86 6 15 15 27 20 27 5 0 9 6 9 14 0 7 7 19 15 26 32
27 13 45 -45 45 -53 0 -55 1 -58 28 -4 30 -18 36 -25 10z"/>
<path d="M5232 13398 c-17 -17 -15 -45 4 -52 34 -13 54 -7 54 17 0 24 -17 47
-35 47 -6 0 -16 -5 -23 -12z"/>
<path d="M10110 13239 c-254 -61 -306 -69 -485 -79 -99 -5 -209 -13 -245 -16
l-65 -7 45 -9 c58 -12 457 -3 493 11 26 10 131 22 352 40 72 5 81 8 92 31 10
20 10 28 0 37 -23 23 -63 21 -187 -8z"/>
<path d="M5660 12526 c0 -299 4 -467 10 -471 7 -4 10 151 10 459 0 299 -4 467
-10 471 -7 4 -10 -151 -10 -459z"/>
<path d="M2633 12927 c-11 -6 -49 -30 -82 -52 -34 -22 -97 -62 -139 -90 -79
-52 -91 -69 -78 -121 9 -33 29 -30 73 9 50 44 259 176 280 177 9 0 10 -26 6
-102 -5 -94 -4 -106 16 -140 23 -38 56 -57 72 -41 5 5 -4 27 -23 52 -27 38
-32 53 -36 120 -2 42 -4 97 -3 123 1 38 -4 50 -21 63 -27 18 -36 19 -65 2z"/>
<path d="M4517 12760 c-51 -40 -71 -88 -71 -165 0 -81 17 -121 68 -160 54 -41
93 -42 143 -6 50 36 70 70 78 137 9 68 -16 144 -61 184 -43 38 -116 42 -157
10z m130 -56 c39 -52 45 -147 13 -199 -25 -41 -53 -55 -94 -48 -33 7 -51 32
-67 95 -11 39 -10 54 4 98 31 94 94 118 144 54z"/>
<path d="M4567 12664 c-4 -4 -7 -35 -7 -69 0 -45 5 -66 16 -76 24 -20 35 6 32
81 -2 49 -7 66 -18 68 -9 1 -19 0 -23 -4z"/>
<path d="M5242 12773 c-60 -4 -66 -7 -105 -47 l-42 -43 1 -80 c1 -66 5 -86 22
-108 43 -54 62 -62 142 -62 l75 1 48 50 c36 37 47 55 43 70 -3 12 -6 45 -6 75
0 52 -2 56 -50 103 -27 26 -53 47 -57 46 -4 -1 -37 -3 -71 -5z m88 -53 c0 -12
10 -25 25 -32 29 -13 33 -46 8 -55 -39 -14 -43 -49 -8 -65 30 -13 32 -33 6
-48 -11 -5 -23 -19 -26 -30 -9 -27 -29 -25 -43 5 -7 15 -20 25 -32 25 -11 0
-27 -11 -36 -25 -18 -27 -44 -34 -44 -10 0 8 -11 22 -25 31 -14 9 -25 22 -25
29 0 7 11 16 25 19 18 5 25 13 25 30 0 14 -10 30 -25 40 -14 9 -25 23 -25 30
0 8 11 17 25 20 16 4 25 13 25 26 0 26 30 26 37 1 5 -20 36 -33 58 -25 7 3 17
16 23 30 14 29 32 32 32 4z"/>
<path d="M5220 12615 c-20 -24 -4 -45 34 -45 39 0 50 11 41 40 -8 24 -56 28
-75 5z"/>
<path d="M3849 12742 c-88 -53 -93 -61 -90 -157 2 -84 3 -87 36 -121 19 -19
43 -34 53 -34 11 0 25 -7 32 -15 7 -8 25 -15 40 -15 15 0 33 7 40 15 7 8 18
15 25 15 7 0 32 17 56 39 l44 38 0 75 c-1 89 -18 117 -97 160 -63 35 -81 35
-139 0z m101 -57 c0 -36 21 -49 37 -21 11 19 50 29 58 16 14 -23 -5 -58 -35
-65 -38 -8 -42 -42 -5 -51 46 -11 60 -74 17 -74 -10 0 -27 9 -37 20 -26 29
-33 25 -37 -22 -3 -39 -6 -43 -30 -46 -26 -3 -28 -1 -28 37 0 47 -10 57 -33
30 -20 -23 -55 -25 -64 -4 -6 17 23 55 41 55 44 1 41 45 -5 55 -31 7 -50 48
-32 66 11 11 57 -3 68 -20 13 -22 27 -11 22 18 -7 35 -2 41 35 41 25 0 28 -3
28 -35z"/>
<path d="M2398 12594 c-14 -13 -9 -61 7 -74 8 -7 15 -25 15 -40 0 -15 7 -33
15 -40 9 -7 13 -21 10 -30 -3 -9 1 -23 10 -30 8 -7 15 -17 15 -22 0 -17 88
-157 136 -217 62 -78 117 -143 129 -152 6 -5 26 -21 45 -37 67 -54 171 -126
207 -141 11 -6 24 -15 28 -20 3 -6 15 -11 25 -11 10 0 26 -9 34 -21 41 -59 47
12 30 343 -9 171 -26 143 -44 -74 -8 -105 -21 -148 -41 -148 -29 0 -163 77
-189 109 -38 46 -51 59 -94 96 -29 24 -36 37 -36 67 0 39 -19 58 -58 58 -26 0
-66 74 -58 106 5 18 1 23 -15 26 -23 3 -24 5 -60 86 -12 28 -27 52 -32 52 -5
0 -7 9 -4 20 6 22 -62 107 -75 94z"/>
<path d="M2985 12551 c-7 -13 21 -20 73 -19 26 0 42 5 42 13 0 15 -106 20
-115 6z"/>
<path d="M5669 11993 c-3 -89 2 -617 6 -621 3 -3 5 142 5 321 0 180 -2 327 -5
327 -3 0 -5 -12 -6 -27z"/>
<path d="M3040 11488 c-25 -5 -68 -7 -96 -4 -65 7 -76 -4 -72 -76 l3 -53 93 4
c66 2 97 0 108 -10 14 -11 18 -10 30 6 24 33 13 148 -14 144 -4 -1 -27 -5 -52
-11z"/>
<path d="M4910 11330 c0 -12 28 -25 36 -17 3 3 -4 10 -15 17 -15 7 -21 7 -21
0z"/>
<path d="M4520 11292 c0 -7 11 -14 25 -17 14 -3 37 -7 51 -10 38 -8 118 5 106
17 -15 15 -182 24 -182 10z"/>
<path d="M5632 11278 c-6 -9 -6 -47 3 -118 7 -58 14 -96 15 -85 1 11 4 29 5
40 16 133 17 175 2 175 -8 0 -19 -6 -25 -12z"/>
<path d="M5460 11021 c0 -17 5 -31 10 -31 6 0 10 11 10 24 0 14 -4 28 -10 31
-6 4 -10 -7 -10 -24z"/>
<path d="M2724 10869 c-3 -6 -6 -141 -6 -301 l0 -291 194 1 193 1 0 293 c0
288 0 293 -20 289 -45 -8 -302 -2 -327 8 -19 7 -29 7 -34 0z m312 -58 l32 -1
-1 -87 c0 -49 1 -92 2 -98 2 -5 3 -64 2 -131 -1 -114 -2 -123 -25 -147 -23
-24 -30 -26 -88 -23 -35 2 -79 4 -99 5 -30 1 -41 7 -62 39 -25 37 -25 39 -22
207 1 94 7 184 12 200 13 40 42 44 249 36z"/>
<path d="M3709 10443 c-33 -85 -37 -190 -10 -281 28 -92 49 -138 86 -186 17
-22 37 -58 45 -80 34 -90 61 -25 41 99 -10 67 -2 88 27 62 20 -19 42 -22 42
-8 0 6 -4 13 -10 16 -12 7 -14 122 -2 127 10 4 66 102 81 140 10 26 9 26 -17
17 -18 -7 -40 -32 -64 -74 -21 -35 -38 -68 -38 -73 0 -5 -7 -15 -15 -22 -26
-22 -58 3 -94 71 -28 54 -33 73 -33 134 0 38 1 79 3 89 2 10 -1 21 -8 23 -6 2
-21 -21 -34 -54z"/>
<path d="M4400 10480 c0 -5 7 -10 15 -10 8 0 15 5 15 10 0 6 -7 10 -15 10 -8
0 -15 -4 -15 -10z"/>
<path d="M5530 9834 c-25 -7 -63 -13 -85 -13 -23 -1 -45 -5 -50 -10 -6 -5 -39
-14 -75 -20 -112 -17 -185 -33 -196 -42 -6 -5 -32 -12 -58 -15 -26 -4 -49 -11
-52 -16 -11 -17 154 5 239 31 28 9 163 25 313 38 64 6 64 5 69 -142 2 -60 8
-111 12 -112 4 -2 8 45 9 105 1 96 7 142 29 195 6 15 1 17 -51 16 -33 -1 -79
-7 -104 -15z"/>
<path d="M5642 9435 c-1 -41 2 -64 7 -55 4 8 5 40 1 70 l-7 55 -1 -70z"/>
<path d="M4349 8479 c-34 -33 -44 -50 -51 -92 -12 -75 -10 -365 3 -407 6 -19
27 -52 47 -72 41 -43 77 -49 139 -23 32 14 38 14 53 0 22 -20 99 -19 128 1 21
14 26 14 63 0 59 -24 84 -20 129 20 56 51 62 81 58 320 l-3 205 -47 45 c-53
49 -83 55 -142 27 -33 -15 -37 -15 -54 0 -24 22 -100 22 -131 1 -21 -15 -26
-15 -65 0 -62 24 -80 20 -127 -25z m116 -30 c11 -16 7 -501 -3 -511 -5 -5 -28
-8 -52 -6 l-42 3 0 252 c0 139 3 257 7 262 8 14 82 14 90 0z m182 3 c8 -5 11
-42 11 -110 -1 -112 -12 -139 -52 -128 -12 3 -29 6 -38 6 -16 0 -18 12 -18
113 0 63 3 117 7 120 9 9 75 9 90 -1z m188 0 c6 -4 10 -103 10 -260 0 -249 0
-253 -21 -258 -12 -3 -36 -4 -55 -2 l-34 3 -3 250 c-1 137 0 255 3 262 5 14
83 18 100 5z m-209 -300 c23 -15 32 -50 33 -129 0 -79 -1 -83 -23 -89 -13 -3
-37 -4 -52 -2 l-29 3 -3 88 c-2 71 1 92 15 112 18 25 39 31 59 17z"/>
<path d="M3149 8215 c-4 -66 -4 -127 -1 -135 11 -29 17 44 12 150 l-5 105 -6
-120z"/>
</g>
</svg>
