<?xml version="1.0" standalone="no"?>
<!DOCTYPE svg PUBLIC "-//W3C//DTD SVG 20010904//EN"
 "http://www.w3.org/TR/2001/REC-SVG-20010904/DTD/svg10.dtd">
<svg version="1.0" xmlns="http://www.w3.org/2000/svg"
 width="1559.000000pt" height="1997.000000pt" viewBox="0 0 1559.000000 1997.000000"
 preserveAspectRatio="xMidYMid meet">
<metadata>
Created by potrace 1.10, written by Peter Selinger 2001-2011
</metadata>
<g transform="translate(0.000000,1997.000000) scale(0.050000,-0.050000)"
fill="#000000" stroke="none">
<path d="M840 39820 c-494 -11 -540 -19 -623 -113 -99 -113 -92 244 -100
-5537 l-6 -5381 52 -90 c32 -53 86 -108 134 -135 l81 -46 1136 6 c1247 7 1188
1 1310 129 72 77 95 144 109 325 8 103 26 175 55 222 41 69 42 87 48 1295 l5
1225 -45 0 c-93 -1 -91 22 -104 -1110 -13 -1164 -33 -1542 -56 -1040 -7 154
-13 690 -14 1190 -1 501 -1 916 -2 922 0 7 -116 -8 -258 -33 -260 -46 -309
-57 -812 -179 -490 -118 -689 -115 -734 12 -20 57 -21 58 -53 22 -35 -40 -126
-45 -139 -7 -4 13 -21 23 -37 23 -16 0 -24 9 -17 20 7 11 3 20 -9 20 -25 0
-28 138 -4 176 9 14 31 20 49 13 19 -7 28 -22 21 -34 -8 -14 -1 -14 24 0 26
15 59 13 113 -6 42 -15 76 -21 76 -13 0 8 9 1 20 -16 14 -21 19 -23 20 -4 0
19 22 23 85 13 100 -14 147 -48 63 -44 -101 3 -177 -39 -139 -77 19 -19 46
-26 67 -18 18 7 96 18 172 23 76 5 154 17 173 28 20 10 70 24 112 30 43 6 104
19 137 29 33 9 141 27 240 39 99 12 216 27 260 33 92 12 839 21 3940 48 2739
23 2667 15 2709 314 50 356 -30 454 -449 553 -427 100 -418 100 -2872 84
-1260 -7 -2347 -7 -2415 0 l-123 14 0 3204 0 3203 -48 99 c-27 54 -58 161 -69
236 -57 375 -62 376 -2083 333z m1806 -185 c30 -20 54 -48 54 -63 0 -15 12
-32 27 -38 15 -6 34 -45 42 -87 27 -134 30 -6029 4 -6038 -64 -24 -454 107
-557 187 -447 344 -966 331 -1444 -36 -43 -33 -72 -60 -64 -60 7 0 -5 -20 -29
-45 -84 -90 -177 -269 -220 -425 -55 -199 -77 -248 -125 -273 -61 -33 -65 9
-46 473 4 110 10 522 13 915 2 394 12 720 21 726 9 6 9 31 -1 55 -9 25 -18
328 -21 675 -2 346 -4 656 -5 689 -1 33 -1 96 0 140 0 44 -1 641 -3 1326 -2
686 3 1251 12 1257 9 5 10 20 2 33 -30 48 -25 452 5 483 16 15 29 38 29 50 0
11 13 21 28 21 16 0 32 10 36 22 19 58 2154 70 2242 13z m266 -3212 c5 -1525
12 -2973 16 -3218 4 -245 -1 -445 -11 -445 -9 0 -19 79 -21 175 l-4 175 -7
-165 c-6 -150 -26 -205 -50 -140 -15 40 -19 6326 -4 6405 14 70 14 71 44 29
26 -37 31 -394 37 -2816z m-2717 -2357 c-3 -218 -6 -45 -6 384 0 429 3 607 6
396 3 -211 3 -562 0 -780z m1594 -297 c392 -102 791 -547 791 -882 0 -70 -31
-74 -102 -14 -17 15 -36 23 -41 17 -6 -5 -10 3 -10 20 0 61 -113 250 -205 343
-450 458 -1028 410 -1416 -118 -90 -123 -184 -178 -200 -116 -9 35 -21 26 -79
-64 -72 -112 -73 -107 -23 95 126 510 750 859 1285 719z m9 -298 c183 -95 370
-266 449 -411 81 -150 85 -180 23 -180 -65 0 -130 33 -130 66 -1 42 -101 242
-145 289 -56 60 -216 132 -387 175 -172 43 -183 49 -136 85 49 36 236 23 326
-24z m34 -181 c44 -26 94 -64 110 -83 15 -19 -5 -10 -46 20 -40 31 -117 74
-170 95 -60 25 -73 35 -36 27 33 -6 97 -33 142 -59z m814 40 c101 -11 128
-151 83 -415 -16 -88 -49 -100 -49 -18 0 31 -6 63 -14 70 -7 8 -16 30 -19 50
-3 19 -23 75 -45 123 -22 49 -36 94 -31 101 4 8 -10 30 -31 49 -53 48 -51 78
5 60 25 -7 70 -17 101 -20z m-1241 -20 c8 -12 15 -9 15 8 0 21 11 19 43 -10
28 -24 38 -27 27 -8 -9 17 6 10 33 -15 30 -27 75 -45 113 -45 38 0 64 -10 64
-25 1 -17 7 -15 20 5 14 22 19 23 20 4 0 -15 8 -21 19 -15 10 6 24 2 31 -9 7
-11 21 -15 31 -9 11 6 19 3 19 -7 0 -10 18 -26 39 -36 101 -46 13 -71 -155
-45 -88 14 -158 31 -154 37 4 7 -25 10 -64 7 -40 -3 -82 0 -93 8 -34 20 -211
18 -198 -3 6 -10 -3 -13 -21 -6 -18 7 -38 4 -45 -7 -6 -11 -26 -5 -45 14 -25
25 -27 36 -9 42 14 5 20 17 14 27 -6 10 -1 18 11 18 12 0 42 20 67 45 47 48
189 64 218 25z m-450 -220 c-47 -41 -50 -51 -23 -66 43 -24 -52 -143 -306
-385 -237 -226 -268 -461 -103 -799 51 -104 93 -211 94 -237 2 -86 135 -179
316 -222 110 -26 667 -22 667 4 0 25 35 17 67 -15 37 -37 53 -38 53 -4 0 34
180 72 490 103 55 6 116 11 135 12 19 1 36 17 37 35 0 19 5 24 10 11 7 -15 33
-17 84 -5 112 26 237 22 239 -7 0 -14 10 -88 21 -165 43 -306 52 -2440 11
-2466 -13 -8 -30 -39 -38 -69 -9 -37 -31 -60 -66 -68 -29 -7 -58 -20 -64 -29
-17 -26 -2139 -42 -2139 -17 0 12 -8 17 -17 11 -9 -6 -43 17 -75 50 l-58 61 1
863 c1 475 4 896 8 934 3 39 -1 87 -10 108 -10 23 -8 34 3 27 11 -7 19 5 19
25 0 20 -7 33 -15 27 -9 -5 -16 0 -16 12 0 11 11 21 25 21 18 1 17 5 -3 18
-15 10 -22 26 -16 35 6 10 13 171 15 358 3 186 9 346 13 354 13 23 86 -22 86
-53 0 -26 129 -30 154 -5 6 6 -17 46 -51 89 -362 457 -243 974 323 1401 138
104 230 142 129 53z m615 -119 c190 -44 312 -81 482 -147 87 -33 253 -83 368
-111 631 -150 761 -178 870 -185 66 -4 171 -12 234 -17 63 -6 119 -2 125 8 11
18 893 25 3271 27 1024 1 1187 -3 1305 -32 149 -37 242 -87 222 -119 -9 -14
34 -16 135 -4 81 8 175 17 208 17 l60 2 -7 -120 c-8 -134 -49 -222 -111 -238
-44 -11 -112 38 -112 81 0 74 -89 164 -175 177 -47 7 -85 22 -85 34 0 16 -238
19 -845 9 -3353 -51 -5276 -36 -5548 44 -190 55 -481 122 -580 133 -45 4 -106
13 -136 18 -29 5 -88 -3 -131 -18 -88 -31 -99 -20 -99 100 0 33 -1 92 -1 132
-2 218 192 292 550 209z m-824 -463 c86 -73 87 -125 4 -250 -38 -59 -70 -114
-70 -123 0 -29 -74 -15 -105 20 -80 89 -58 288 39 365 64 50 58 50 132 -12z
m323 -106 c6 -10 49 -25 96 -33 47 -7 103 -18 125 -24 41 -10 318 -28 990 -63
215 -11 764 -26 1220 -33 457 -6 1006 -15 1220 -18 238 -4 400 2 415 14 17 13
25 13 25 -1 0 -22 2761 -16 2978 6 115 12 141 -14 146 -140 3 -92 -74 -124
-264 -111 -151 11 -244 10 -251 -1 -9 -14 -205 -3 -231 13 -10 6 -18 1 -18
-12 0 -18 -7 -18 -27 -2 -15 13 -32 17 -38 11 -21 -21 -1941 -39 -1974 -19
-11 7 -21 4 -21 -7 0 -13 -327 -19 -960 -16 -528 2 -960 -2 -960 -9 0 -7 -114
-16 -254 -21 -166 -5 -256 -16 -261 -31 -5 -16 -97 -23 -291 -24 -172 0 -287
-9 -291 -21 -3 -11 -20 -20 -36 -20 -16 0 -23 10 -16 22 10 15 -1 18 -32 8
-25 -8 -87 -15 -138 -15 -73 0 -81 -3 -41 -15 48 -15 -131 -23 -730 -31 -132
-2 -303 -9 -380 -16 -265 -24 -402 138 -274 323 20 30 58 105 82 168 25 63 61
118 79 123 59 15 100 13 112 -5z"/>
<path d="M1333 39570 c-443 -168 -599 -699 -306 -1042 209 -244 375 -298 646
-206 57 19 109 29 115 23 7 -6 12 -1 12 12 0 13 11 23 25 23 28 0 230 160 202
160 -9 0 -7 7 4 15 92 63 156 423 105 585 -99 312 -520 538 -803 430z m325
-161 c552 -164 390 -982 -187 -945 -518 33 -591 790 -91 945 118 37 153 37
278 0z"/>
<path d="M1376 39239 c-323 -170 -221 -659 138 -659 215 0 352 138 352 354 0
255 -268 422 -490 305z m256 -219 c73 -52 77 -130 13 -238 -10 -18 -165 -18
-165 0 0 10 -13 18 -29 18 -38 0 -118 113 -91 130 11 7 16 20 11 28 -5 9 4 33
21 54 17 21 25 27 18 13 -7 -14 -4 -25 7 -25 10 0 24 13 30 28 14 37 129 32
185 -8z"/>
<path d="M2264 37866 c-34 -17 -77 -53 -96 -81 -36 -56 -53 -211 -21 -191 12
8 12 1 2 -16 -43 -69 3 -182 92 -228 70 -37 199 -22 199 22 0 26 25 37 66 30
10 -2 11 7 3 20 -8 12 -4 29 9 37 13 8 26 69 29 137 3 67 -1 117 -10 112 -10
-6 -17 4 -17 22 0 87 -171 177 -256 136z m111 -131 c10 -14 20 -76 21 -138 3
-128 -22 -163 -110 -153 -78 8 -75 64 4 65 74 1 94 60 26 79 -44 12 -45 14 -8
41 52 40 28 101 -28 71 -31 -17 -40 -15 -40 6 0 57 97 78 135 29z"/>
<path d="M1396 37813 c-42 -42 -57 -73 -50 -107 5 -26 2 -51 -7 -57 -8 -5 -13
-25 -10 -44 3 -19 -2 -40 -10 -45 -24 -16 -49 -128 -25 -114 11 7 31 -11 44
-39 13 -29 29 -47 35 -41 6 6 31 -8 54 -32 71 -73 122 -56 272 86 22 21 29 60
26 130 -3 55 -5 125 -5 155 0 30 -8 55 -19 55 -25 0 -102 82 -92 99 30 48
-160 7 -213 -46z m167 -86 c50 -45 46 -93 -13 -163 -27 -33 -50 -65 -50 -72 0
-7 23 -12 50 -12 82 0 56 -35 -32 -44 -108 -10 -120 24 -40 115 78 88 85 159
13 141 -59 -15 -85 18 -36 46 49 29 66 27 108 -11z"/>
<path d="M654 37831 c-16 -16 -34 -24 -41 -18 -6 7 -27 -21 -46 -61 -19 -39
-42 -72 -52 -72 -10 0 -12 -27 -6 -60 6 -33 16 -89 23 -125 18 -103 165 -234
216 -194 12 10 50 41 85 69 62 50 79 178 44 329 -18 77 -182 173 -223 132z
m86 -221 c0 -73 9 -130 20 -130 32 0 23 -35 -13 -48 -39 -15 -107 3 -107 29 0
11 14 19 30 19 22 0 30 23 30 90 0 67 -8 90 -30 90 -40 0 -38 20 5 52 58 44
65 33 65 -102z"/>
<path d="M1407 36967 c-65 -42 -85 -69 -94 -126 -20 -121 26 -341 71 -341 10
0 13 -9 6 -20 -7 -11 1 -14 19 -8 18 7 36 -1 42 -18 7 -17 22 -28 35 -27 48 7
154 58 154 74 0 9 19 22 42 29 22 8 36 19 30 24 -6 6 0 30 13 54 28 50 32 75
15 102 -7 11 -14 47 -16 79 -5 75 -81 186 -137 200 -24 6 -56 16 -71 21 -15 6
-64 -13 -109 -43z m193 -117 c0 -18 -19 -30 -49 -30 -71 0 -80 -33 -16 -64
102 -49 69 -196 -44 -196 -26 0 -52 14 -58 30 -9 22 3 30 46 30 32 0 64 8 70
18 21 35 -14 82 -61 82 -43 0 -48 9 -48 80 0 80 0 80 80 80 58 0 80 -8 80 -30z"/>
<path d="M2280 37003 c0 -8 -29 -32 -65 -52 -75 -44 -117 -92 -107 -121 9 -27
-40 -71 -60 -54 -9 8 -6 0 7 -18 14 -17 19 -37 13 -44 -53 -52 161 -279 264
-279 107 0 271 274 204 341 -10 10 -19 37 -21 61 -2 24 -12 43 -23 43 -10 0
-13 6 -6 12 17 18 -33 64 -99 91 -75 31 -107 36 -107 20z m120 -143 c0 -11
-16 -20 -36 -20 -36 0 -84 -35 -84 -62 0 -8 17 -10 38 -4 92 24 124 -166 34
-201 -106 -40 -164 93 -103 238 28 67 151 107 151 49z"/>
<path d="M2292 36725 c-7 -6 -12 -33 -12 -60 0 -61 67 -55 76 8 6 40 -39 77
-64 52z"/>
<path d="M720 36977 c0 -13 -5 -18 -12 -12 -28 29 -192 -142 -213 -222 -12
-47 23 -163 51 -163 9 0 29 -11 43 -25 117 -113 162 -127 219 -69 20 19 43 29
54 23 10 -6 18 2 18 18 0 17 12 42 27 57 15 15 26 61 25 102 -1 41 7 77 17 80
11 4 9 19 -5 35 -13 16 -43 54 -66 84 -22 30 -53 55 -67 55 -15 0 -32 14 -38
30 -14 35 -53 40 -53 7z m60 -195 c0 -43 11 -84 25 -90 20 -10 20 -14 0 -24
-14 -6 -25 -33 -25 -60 0 -26 -9 -48 -20 -48 -11 0 -20 23 -20 50 0 42 -9 50
-60 50 -75 0 -77 32 -5 126 73 96 105 95 105 -4z"/>
<path d="M1540 36139 c0 -12 -17 -16 -37 -10 -37 12 -84 -25 -178 -138 -48
-58 -66 -256 -25 -281 12 -7 16 -20 10 -30 -6 -9 8 -23 30 -30 22 -7 49 -30
61 -51 22 -43 166 -57 189 -19 7 12 20 16 29 11 93 -58 177 329 87 403 -24 20
-45 47 -45 61 -1 14 -10 25 -21 25 -11 0 -38 18 -60 40 -22 22 -40 30 -40 19z
m48 -184 c5 -25 8 -63 7 -85 0 -22 5 -54 13 -72 23 -54 -52 -126 -114 -111
-59 15 -94 101 -57 138 14 14 15 33 1 58 -30 57 12 117 82 117 46 0 61 -10 68
-45z"/>
<path d="M1483 35927 c4 -20 21 -37 37 -37 43 0 37 58 -7 67 -27 5 -35 -3 -30
-30z"/>
<path d="M1480 35793 c0 -60 21 -77 61 -52 22 13 24 26 8 52 -35 56 -69 55
-69 0z"/>
<path d="M2208 36089 c-29 -38 -63 -63 -75 -56 -13 8 -16 6 -8 -3 8 -9 5 -27
-6 -41 -30 -37 -26 -229 6 -229 9 0 13 -8 7 -17 -6 -10 6 -38 28 -63 21 -25
44 -62 51 -82 21 -69 161 -40 251 51 41 42 70 89 64 104 -6 15 -2 27 8 27 11
0 13 44 5 105 -8 58 -10 112 -5 120 5 9 2 14 -8 10 -9 -3 -45 26 -81 63 -36
37 -65 63 -65 56 0 -6 -27 -3 -60 6 -54 15 -65 10 -112 -51z m151 -88 c68 -37
65 -241 -4 -284 -36 -23 -115 -21 -115 3 0 11 16 20 36 20 36 0 84 35 84 62 0
8 -17 10 -37 5 -88 -23 -133 103 -63 173 46 46 50 47 99 21z"/>
<path d="M2280 35911 c0 -38 10 -51 41 -51 32 0 40 11 35 45 -9 66 -76 72 -76
6z"/>
<path d="M640 36116 c0 -9 -11 -16 -25 -16 -86 -2 -115 -337 -38 -440 66 -89
136 -98 203 -26 32 34 68 65 79 69 18 6 36 65 40 132 0 14 14 25 30 25 56 0
-31 209 -96 231 -78 27 -193 42 -193 25z m160 -151 c0 -60 -105 -285 -133
-285 -37 0 -36 4 33 141 l61 119 -71 0 c-66 0 -87 17 -57 47 32 31 167 14 167
-22z"/>
<path d="M1465 35238 c-25 -9 -45 -12 -45 -6 0 19 -53 -41 -81 -92 -15 -28
-26 -57 -23 -65 2 -8 -8 -15 -23 -15 -49 0 -15 -174 50 -258 20 -26 37 -58 37
-70 0 -14 48 -25 122 -29 74 -3 117 2 110 14 -6 10 10 24 36 31 29 7 53 31 60
62 7 27 19 50 27 50 18 0 14 149 -4 179 -7 11 -3 21 9 21 23 0 18 9 -64 102
-57 64 -151 98 -211 76z m90 -115 c86 -54 55 -320 -36 -323 -90 -2 -130 253
-50 312 44 32 52 33 86 11z"/>
<path d="M1494 35067 c-34 -33 -15 -210 21 -203 28 5 35 27 35 105 0 90 -23
131 -56 98z"/>
<path d="M2208 35215 c-105 -81 -169 -162 -143 -178 17 -11 14 -19 -10 -28
-19 -7 -30 -21 -24 -31 7 -10 21 -13 33 -5 14 8 18 -5 12 -40 -38 -199 299
-289 449 -119 85 95 5 452 -88 394 -9 -6 -17 -1 -17 11 0 12 -22 18 -50 13
-27 -5 -55 -1 -61 9 -17 29 -38 23 -101 -26z m72 -125 c0 -17 18 -30 40 -30
22 0 40 13 40 30 0 40 13 38 64 -9 38 -36 39 -41 9 -53 -43 -16 -42 -67 2 -99
33 -25 33 -27 0 -40 -19 -7 -35 -28 -36 -46 0 -30 -3 -29 -27 2 -14 19 -38 35
-52 35 -14 0 -38 -16 -52 -35 -25 -33 -27 -33 -27 0 -1 19 -14 35 -31 35 -16
0 -30 8 -30 18 0 10 14 23 30 29 17 7 30 30 30 52 0 23 -13 41 -30 41 -39 0
-38 11 5 58 43 48 65 51 65 12z"/>
<path d="M2280 34970 c0 -37 11 -50 40 -50 29 0 40 13 40 50 0 37 -11 50 -40
50 -29 0 -40 -13 -40 -50z"/>
<path d="M650 35213 c-107 -63 -177 -113 -160 -114 11 0 6 -11 -12 -25 -36
-28 -63 -114 -36 -114 10 0 18 -25 18 -55 1 -70 158 -213 237 -215 90 -3 278
135 267 194 -4 19 3 51 14 72 22 42 7 129 -20 113 -10 -6 -18 3 -18 21 0 18
-9 27 -20 20 -11 -7 -20 -4 -20 7 0 60 -189 132 -250 96z m90 -143 c0 -51 27
-67 50 -30 18 30 50 24 50 -9 0 -15 -18 -34 -40 -41 -54 -17 -50 -39 13 -68
39 -18 47 -30 31 -46 -17 -17 -33 -14 -64 14 -39 36 -40 35 -40 -29 0 -43 -8
-62 -25 -56 -15 5 -22 32 -18 67 7 56 6 57 -31 23 -42 -38 -86 -46 -86 -16 0
10 20 33 44 50 l45 31 -45 31 c-24 17 -44 40 -44 50 0 30 43 22 83 -14 35 -32
37 -30 37 30 0 35 9 63 20 63 11 0 20 -22 20 -50z"/>
<path d="M1472 30128 c-12 -30 -92 -39 -92 -10 0 67 -240 -62 -257 -138 -3
-17 -13 -33 -22 -36 -9 -3 -13 -55 -9 -115 4 -66 -1 -109 -13 -109 -13 0 -14
-13 -3 -35 10 -19 16 -80 14 -135 -2 -69 8 -116 33 -152 20 -29 30 -58 23 -65
-7 -7 -4 -13 7 -13 11 0 39 -18 63 -41 24 -22 44 -37 44 -32 0 5 32 2 70 -7
42 -10 70 -8 70 3 0 12 36 14 88 6 49 -7 104 -4 123 6 22 13 53 12 89 -1 31
-12 70 -13 92 -4 21 9 43 17 48 18 20 4 94 86 109 124 35 82 18 581 -22 636
-31 42 -131 100 -167 97 -5 -1 -41 -6 -79 -12 -37 -6 -87 0 -110 12 -60 34
-87 35 -99 3z m-96 -443 l5 -305 -60 0 -61 0 0 297 c0 311 4 328 69 319 39 -6
41 -21 47 -311z m220 170 l6 -135 -61 0 -61 0 0 141 0 142 55 -7 c53 -6 55
-10 61 -141z m220 -170 l5 -305 -60 0 -61 0 0 311 0 312 55 -7 55 -6 6 -305z
m-240 -69 c57 -57 30 -236 -36 -236 -59 0 -60 2 -60 106 0 94 24 154 60 154 7
0 23 -11 36 -24z"/>
</g>
</svg>
